<svg xmlns="http://www.w3.org/2000/svg" xmlns:xlink="http://www.w3.org/1999/xlink" width="1280" zoomAndPan="magnify" viewBox="0 0 960 540.000001" height="720" preserveAspectRatio="xMidYMid meet" version="1.0"><defs><clipPath id="29d4c705e1"><path d="M 0.886719 0 L 266 0 L 266 503 L 0.886719 503 Z M 0.886719 0 " clip-rule="nonzero"/></clipPath><clipPath id="2923f6b1f2"><path d="M 0.886719 39 L 241 39 L 241 496 L 0.886719 496 Z M 0.886719 39 " clip-rule="nonzero"/></clipPath><clipPath id="e47671fc7c"><path d="M -56.476562 500.042969 L -220.820312 194.53125 L 97.820312 23.125 L 262.164062 328.636719 Z M -56.476562 500.042969 " clip-rule="nonzero"/></clipPath><clipPath id="b36a467daf"><path d="M -214.789062 205.738281 L -62.503906 488.835938 C -60.90625 491.808594 -58.191406 494.023438 -54.957031 494.996094 C -51.726562 495.964844 -48.238281 495.613281 -45.265625 494.015625 L 232.402344 344.648438 C 248.675781 314.941406 247.316406 248.621094 153.726562 198.390625 C 51.730469 152.683594 54.117188 73.175781 68.058594 39.132812 L -209.609375 188.5 C -212.582031 190.097656 -214.800781 192.8125 -215.769531 196.046875 C -216.742188 199.277344 -216.390625 202.765625 -214.789062 205.738281 Z M -214.789062 205.738281 " clip-rule="nonzero"/></clipPath><clipPath id="b3ac6327e9"><path d="M 0.886719 0.046875 L 241 0.046875 L 241 457 L 0.886719 457 Z M 0.886719 0.046875 " clip-rule="nonzero"/></clipPath><clipPath id="8045ef9b63"><path d="M -56.476562 461.042969 L -220.820312 155.53125 L 97.820312 -15.875 L 262.164062 289.636719 Z M -56.476562 461.042969 " clip-rule="nonzero"/></clipPath><clipPath id="5302f24265"><path d="M -214.789062 166.738281 L -62.503906 449.835938 C -60.90625 452.808594 -58.191406 455.023438 -54.957031 455.996094 C -51.726562 456.964844 -48.238281 456.613281 -45.265625 455.015625 L 232.402344 305.648438 C 248.675781 275.941406 247.316406 209.621094 153.726562 159.390625 C 51.730469 113.683594 54.117188 34.175781 68.058594 0.132812 L -209.609375 149.5 C -212.582031 151.097656 -214.800781 153.8125 -215.769531 157.046875 C -216.742188 160.277344 -216.390625 163.765625 -214.789062 166.738281 Z M -214.789062 166.738281 " clip-rule="nonzero"/></clipPath><clipPath id="6c10290a6a"><rect x="0" width="241" y="0" height="457"/></clipPath><clipPath id="04f1365974"><path d="M 0.886719 0 L 77.683594 0 L 77.683594 79.367188 L 0.886719 79.367188 Z M 0.886719 0 " clip-rule="nonzero"/></clipPath><clipPath id="c9a476fb95"><path d="M -4.082031 -72.6875 C -49.132812 -72.6875 -85.65625 -38.648438 -85.65625 3.339844 C -85.65625 45.328125 -49.132812 79.367188 -4.082031 79.367188 C 40.96875 79.367188 77.488281 45.328125 77.488281 3.339844 C 77.488281 -38.648438 40.96875 -72.6875 -4.082031 -72.6875 Z M -4.082031 -72.6875 " clip-rule="nonzero"/></clipPath><clipPath id="7c746e9b32"><path d="M 0.886719 0 L 77.546875 0 L 77.546875 79.367188 L 0.886719 79.367188 Z M 0.886719 0 " clip-rule="nonzero"/></clipPath><clipPath id="3227be98ad"><path d="M -4.082031 -72.6875 C -49.132812 -72.6875 -85.65625 -38.648438 -85.65625 3.339844 C -85.65625 45.328125 -49.132812 79.367188 -4.082031 79.367188 C 40.96875 79.367188 77.488281 45.328125 77.488281 3.339844 C 77.488281 -38.648438 40.96875 -72.6875 -4.082031 -72.6875 Z M -4.082031 -72.6875 " clip-rule="nonzero"/></clipPath><clipPath id="c657749e8c"><rect x="0" width="78" y="0" height="80"/></clipPath><clipPath id="7252b2d195"><path d="M 0.886719 209.992188 L 241 209.992188 L 241 426.785156 L 0.886719 426.785156 Z M 0.886719 209.992188 " clip-rule="nonzero"/></clipPath><clipPath id="62c0aed4b1"><path d="M 90.632812 209.992188 C 7.605469 209.992188 -59.703125 258.523438 -59.703125 318.386719 C -59.703125 378.253906 7.605469 426.785156 90.632812 426.785156 C 173.660156 426.785156 240.96875 378.253906 240.96875 318.386719 C 240.96875 258.523438 173.660156 209.992188 90.632812 209.992188 Z M 90.632812 209.992188 " clip-rule="nonzero"/></clipPath><clipPath id="38c2e4ede3"><path d="M 0.886719 0.992188 L 241 0.992188 L 241 217.785156 L 0.886719 217.785156 Z M 0.886719 0.992188 " clip-rule="nonzero"/></clipPath><clipPath id="6415e1daf9"><path d="M 90.632812 0.992188 C 7.605469 0.992188 -59.703125 49.523438 -59.703125 109.386719 C -59.703125 169.253906 7.605469 217.785156 90.632812 217.785156 C 173.660156 217.785156 240.96875 169.253906 240.96875 109.386719 C 240.96875 49.523438 173.660156 0.992188 90.632812 0.992188 Z M 90.632812 0.992188 " clip-rule="nonzero"/></clipPath><clipPath id="095755838b"><rect x="0" width="241" y="0" height="218"/></clipPath><clipPath id="56f20349cf"><path d="M 0.886719 350.757812 L 77.488281 350.757812 L 77.488281 502.8125 L 0.886719 502.8125 Z M 0.886719 350.757812 " clip-rule="nonzero"/></clipPath><clipPath id="cb1d21a2e3"><path d="M 1.464844 350.757812 C -40.523438 350.757812 -74.5625 384.796875 -74.5625 426.785156 C -74.5625 468.773438 -40.523438 502.8125 1.464844 502.8125 C 43.453125 502.8125 77.488281 468.773438 77.488281 426.785156 C 77.488281 384.796875 43.453125 350.757812 1.464844 350.757812 Z M 1.464844 350.757812 " clip-rule="nonzero"/></clipPath><clipPath id="25ebf60a8f"><path d="M 0.886719 0.757812 L 77.488281 0.757812 L 77.488281 152.8125 L 0.886719 152.8125 Z M 0.886719 0.757812 " clip-rule="nonzero"/></clipPath><clipPath id="bcb7e320c4"><path d="M 1.464844 0.757812 C -40.523438 0.757812 -74.5625 34.796875 -74.5625 76.785156 C -74.5625 118.773438 -40.523438 152.8125 1.464844 152.8125 C 43.453125 152.8125 77.488281 118.773438 77.488281 76.785156 C 77.488281 34.796875 43.453125 0.757812 1.464844 0.757812 Z M 1.464844 0.757812 " clip-rule="nonzero"/></clipPath><clipPath id="ffcf7d242e"><rect x="0" width="78" y="0" height="153"/></clipPath><clipPath id="7250447ff8"><path d="M 1.464844 274.730469 L 153.515625 274.730469 L 153.515625 426.785156 L 1.464844 426.785156 Z M 1.464844 274.730469 " clip-rule="nonzero"/></clipPath><clipPath id="e5837fc6ff"><path d="M 77.488281 274.730469 C 35.5 274.730469 1.464844 308.769531 1.464844 350.757812 C 1.464844 392.746094 35.5 426.785156 77.488281 426.785156 C 119.480469 426.785156 153.515625 392.746094 153.515625 350.757812 C 153.515625 308.769531 119.480469 274.730469 77.488281 274.730469 Z M 77.488281 274.730469 " clip-rule="nonzero"/></clipPath><clipPath id="353f1f16ae"><path d="M 0.464844 0.730469 L 152.515625 0.730469 L 152.515625 152.785156 L 0.464844 152.785156 Z M 0.464844 0.730469 " clip-rule="nonzero"/></clipPath><clipPath id="bcf25af489"><path d="M 76.488281 0.730469 C 34.5 0.730469 0.464844 34.769531 0.464844 76.757812 C 0.464844 118.746094 34.5 152.785156 76.488281 152.785156 C 118.480469 152.785156 152.515625 118.746094 152.515625 76.757812 C 152.515625 34.769531 118.480469 0.730469 76.488281 0.730469 Z M 76.488281 0.730469 " clip-rule="nonzero"/></clipPath><clipPath id="9087f08f4b"><rect x="0" width="153" y="0" height="153"/></clipPath><clipPath id="42fbeec4f7"><rect x="0" width="266" y="0" height="503"/></clipPath></defs><g clip-path="url(#29d4c705e1)"><g transform="matrix(1, 0, 0, 1, 0.000000000000000222, 0.000000000000017795)"><g clip-path="url(#42fbeec4f7)"><g clip-path="url(#2923f6b1f2)"><g clip-path="url(#e47671fc7c)"><g clip-path="url(#b36a467daf)"><g transform="matrix(1, 0, 0, 1, 0.000000000000000222, 39)"><g clip-path="url(#6c10290a6a)"><g clip-path="url(#b3ac6327e9)"><g clip-path="url(#8045ef9b63)"><g clip-path="url(#5302f24265)"><path fill="#c90000" d="M -56.476562 461.042969 L -220.820312 155.53125 L 101.402344 -17.800781 L 265.746094 287.710938 Z M -56.476562 461.042969 " fill-opacity="1" fill-rule="nonzero"/></g></g></g></g></g></g></g></g><g clip-path="url(#04f1365974)"><g clip-path="url(#c9a476fb95)"><g transform="matrix(1, 0, 0, 1, 0.000000000000000222, 0.000000000000017795)"><g clip-path="url(#c657749e8c)"><g clip-path="url(#7c746e9b32)"><g clip-path="url(#3227be98ad)"><path fill="#c90000" d="M -85.65625 -72.6875 L 77.683594 -72.6875 L 77.683594 79.367188 L -85.65625 79.367188 Z M -85.65625 -72.6875 " fill-opacity="1" fill-rule="nonzero"/></g></g></g></g></g></g><g clip-path="url(#7252b2d195)"><g clip-path="url(#62c0aed4b1)"><g transform="matrix(1, 0, 0, 1, 0.000000000000000222, 209)"><g clip-path="url(#095755838b)"><g clip-path="url(#38c2e4ede3)"><g clip-path="url(#6415e1daf9)"><path fill="#c90000" d="M -59.703125 0.992188 L 240.925781 0.992188 L 240.925781 217.785156 L -59.703125 217.785156 Z M -59.703125 0.992188 " fill-opacity="1" fill-rule="nonzero"/></g></g></g></g></g></g><g clip-path="url(#56f20349cf)"><g clip-path="url(#cb1d21a2e3)"><g transform="matrix(1, 0, 0, 1, 0.000000000000000222, 350)"><g clip-path="url(#ffcf7d242e)"><g clip-path="url(#25ebf60a8f)"><g clip-path="url(#bcb7e320c4)"><path fill="#000000" d="M -74.5625 0.757812 L 77.488281 0.757812 L 77.488281 152.8125 L -74.5625 152.8125 Z M -74.5625 0.757812 " fill-opacity="1" fill-rule="nonzero"/></g></g></g></g></g></g><g clip-path="url(#7250447ff8)"><g clip-path="url(#e5837fc6ff)"><g transform="matrix(1, 0, 0, 1, 1, 274)"><g clip-path="url(#9087f08f4b)"><g clip-path="url(#353f1f16ae)"><g clip-path="url(#bcf25af489)"><path fill="#c90000" d="M 0.464844 0.730469 L 152.515625 0.730469 L 152.515625 152.785156 L 0.464844 152.785156 Z M 0.464844 0.730469 " fill-opacity="1" fill-rule="nonzero"/></g></g></g></g></g></g></g></g></g></svg>