<svg xmlns="http://www.w3.org/2000/svg" xmlns:xlink="http://www.w3.org/1999/xlink" width="1280" zoomAndPan="magnify" viewBox="0 0 960 540.000001" height="720" preserveAspectRatio="xMidYMid meet" version="1.0"><defs><clipPath id="f0837f75f2"><path d="M 0.886719 0 L 212 0 L 212 439 L 0.886719 439 Z M 0.886719 0 " clip-rule="nonzero"/></clipPath><clipPath id="841f695d6e"><path d="M 0.886719 26 L 189 26 L 189 432 L 0.886719 432 Z M 0.886719 26 " clip-rule="nonzero"/></clipPath><clipPath id="91b4eca142"><path d="M -74.910156 435.800781 L -220.820312 164.554688 L 62.082031 12.378906 L 207.992188 283.621094 Z M -74.910156 435.800781 " clip-rule="nonzero"/></clipPath><clipPath id="ca52d4ce9f"><path d="M -214.789062 175.765625 L -80.9375 424.59375 C -77.609375 430.78125 -69.890625 433.101562 -63.703125 429.773438 L 181.566406 297.835938 C 196.015625 271.460938 194.808594 212.582031 111.714844 167.984375 C 21.160156 127.402344 23.277344 56.8125 35.65625 26.589844 L -209.609375 158.527344 C -215.800781 161.855469 -218.121094 169.574219 -214.789062 175.765625 Z M -214.789062 175.765625 " clip-rule="nonzero"/></clipPath><clipPath id="92ebcfb35e"><path d="M 0.886719 0.589844 L 189 0.589844 L 189 406 L 0.886719 406 Z M 0.886719 0.589844 " clip-rule="nonzero"/></clipPath><clipPath id="3a0c7a8f6b"><path d="M -74.910156 409.800781 L -220.820312 138.554688 L 62.082031 -13.621094 L 207.992188 257.621094 Z M -74.910156 409.800781 " clip-rule="nonzero"/></clipPath><clipPath id="cdc3f3c90e"><path d="M -214.789062 149.765625 L -80.9375 398.59375 C -77.609375 404.78125 -69.890625 407.101562 -63.703125 403.773438 L 181.566406 271.835938 C 196.015625 245.460938 194.808594 186.582031 111.714844 141.984375 C 21.160156 101.402344 23.277344 30.8125 35.65625 0.589844 L -209.609375 132.527344 C -215.800781 135.855469 -218.121094 143.574219 -214.789062 149.765625 Z M -214.789062 149.765625 " clip-rule="nonzero"/></clipPath><clipPath id="747a9ae70c"><rect x="0" width="189" y="0" height="406"/></clipPath><clipPath id="659d343970"><path d="M 0.886719 0 L 44.203125 0 L 44.203125 62.308594 L 0.886719 62.308594 Z M 0.886719 0 " clip-rule="nonzero"/></clipPath><clipPath id="af72019ae7"><path d="M -28.394531 -72.6875 C -68.390625 -72.6875 -100.816406 -42.46875 -100.816406 -5.1875 C -100.816406 32.089844 -68.390625 62.308594 -28.394531 62.308594 C 11.605469 62.308594 44.03125 32.089844 44.03125 -5.1875 C 44.03125 -42.46875 11.605469 -72.6875 -28.394531 -72.6875 Z M -28.394531 -72.6875 " clip-rule="nonzero"/></clipPath><clipPath id="332655d0bc"><path d="M 0.886719 0 L 44.203125 0 L 44.203125 62.308594 L 0.886719 62.308594 Z M 0.886719 0 " clip-rule="nonzero"/></clipPath><clipPath id="d588fa8af9"><path d="M -28.394531 -72.6875 C -68.390625 -72.6875 -100.816406 -42.46875 -100.816406 -5.1875 C -100.816406 32.089844 -68.390625 62.308594 -28.394531 62.308594 C 11.605469 62.308594 44.03125 32.089844 44.03125 -5.1875 C 44.03125 -42.46875 11.605469 -72.6875 -28.394531 -72.6875 Z M -28.394531 -72.6875 " clip-rule="nonzero"/></clipPath><clipPath id="bc551f7bbe"><rect x="0" width="45" y="0" height="63"/></clipPath><clipPath id="2fde66bf64"><path d="M 0.886719 178.285156 L 189.882812 178.285156 L 189.882812 370.757812 L 0.886719 370.757812 Z M 0.886719 178.285156 " clip-rule="nonzero"/></clipPath><clipPath id="57ff340613"><path d="M 55.699219 178.285156 C -18.015625 178.285156 -77.773438 221.371094 -77.773438 274.523438 C -77.773438 327.671875 -18.015625 370.757812 55.699219 370.757812 C 129.414062 370.757812 189.171875 327.671875 189.171875 274.523438 C 189.171875 221.371094 129.414062 178.285156 55.699219 178.285156 Z M 55.699219 178.285156 " clip-rule="nonzero"/></clipPath><clipPath id="7c51a5607e"><path d="M 0.886719 0.285156 L 189.179688 0.285156 L 189.179688 192.757812 L 0.886719 192.757812 Z M 0.886719 0.285156 " clip-rule="nonzero"/></clipPath><clipPath id="0163e4305a"><path d="M 55.699219 0.285156 C -18.015625 0.285156 -77.773438 43.371094 -77.773438 96.523438 C -77.773438 149.671875 -18.015625 192.757812 55.699219 192.757812 C 129.414062 192.757812 189.171875 149.671875 189.171875 96.523438 C 189.171875 43.371094 129.414062 0.285156 55.699219 0.285156 Z M 55.699219 0.285156 " clip-rule="nonzero"/></clipPath><clipPath id="d698e9b853"><rect x="0" width="190" y="0" height="193"/></clipPath><clipPath id="30b7a15f42"><path d="M 0.886719 303.261719 L 44.03125 303.261719 L 44.03125 438.257812 L 0.886719 438.257812 Z M 0.886719 303.261719 " clip-rule="nonzero"/></clipPath><clipPath id="a271f6db48"><path d="M -23.46875 303.261719 C -60.75 303.261719 -90.96875 333.480469 -90.96875 370.757812 C -90.96875 408.039062 -60.75 438.257812 -23.46875 438.257812 C 13.808594 438.257812 44.03125 408.039062 44.03125 370.757812 C 44.03125 333.480469 13.808594 303.261719 -23.46875 303.261719 Z M -23.46875 303.261719 " clip-rule="nonzero"/></clipPath><clipPath id="7bd8a8e7a9"><path d="M 0.886719 0.261719 L 44.03125 0.261719 L 44.03125 135.257812 L 0.886719 135.257812 Z M 0.886719 0.261719 " clip-rule="nonzero"/></clipPath><clipPath id="3bd7ba8d2f"><path d="M -23.46875 0.261719 C -60.75 0.261719 -90.96875 30.480469 -90.96875 67.757812 C -90.96875 105.039062 -60.75 135.257812 -23.46875 135.257812 C 13.808594 135.257812 44.03125 105.039062 44.03125 67.757812 C 44.03125 30.480469 13.808594 0.261719 -23.46875 0.261719 Z M -23.46875 0.261719 " clip-rule="nonzero"/></clipPath><clipPath id="e80899b5f4"><rect x="0" width="45" y="0" height="136"/></clipPath><clipPath id="6d6b0190f8"><path d="M 0.886719 235.761719 L 111.527344 235.761719 L 111.527344 370.757812 L 0.886719 370.757812 Z M 0.886719 235.761719 " clip-rule="nonzero"/></clipPath><clipPath id="0e36f6d86b"><path d="M 44.03125 235.761719 C 6.75 235.761719 -23.46875 265.980469 -23.46875 303.261719 C -23.46875 340.539062 6.75 370.757812 44.03125 370.757812 C 81.308594 370.757812 111.527344 340.539062 111.527344 303.261719 C 111.527344 265.980469 81.308594 235.761719 44.03125 235.761719 Z M 44.03125 235.761719 " clip-rule="nonzero"/></clipPath><clipPath id="3455ba5da0"><path d="M 0.886719 0.761719 L 111.527344 0.761719 L 111.527344 135.757812 L 0.886719 135.757812 Z M 0.886719 0.761719 " clip-rule="nonzero"/></clipPath><clipPath id="875195c9da"><path d="M 44.03125 0.761719 C 6.75 0.761719 -23.46875 30.980469 -23.46875 68.261719 C -23.46875 105.539062 6.75 135.757812 44.03125 135.757812 C 81.308594 135.757812 111.527344 105.539062 111.527344 68.261719 C 111.527344 30.980469 81.308594 0.761719 44.03125 0.761719 Z M 44.03125 0.761719 " clip-rule="nonzero"/></clipPath><clipPath id="d674a51c2c"><rect x="0" width="112" y="0" height="136"/></clipPath><clipPath id="b62852f180"><rect x="0" width="212" y="0" height="439"/></clipPath></defs><g clip-path="url(#f0837f75f2)"><g transform="matrix(1, 0, 0, 1, 0.000000000000000222, 0.000000000000017795)"><g clip-path="url(#b62852f180)"><g clip-path="url(#841f695d6e)"><g clip-path="url(#91b4eca142)"><g clip-path="url(#ca52d4ce9f)"><g transform="matrix(1, 0, 0, 1, 0.000000000000000222, 26)"><g clip-path="url(#747a9ae70c)"><g clip-path="url(#92ebcfb35e)"><g clip-path="url(#3a0c7a8f6b)"><g clip-path="url(#cdc3f3c90e)"><path fill="#c90000" d="M -74.910156 409.800781 L -220.820312 138.554688 L 65.257812 -15.332031 L 211.167969 255.910156 Z M -74.910156 409.800781 " fill-opacity="1" fill-rule="nonzero"/></g></g></g></g></g></g></g></g><g clip-path="url(#659d343970)"><g clip-path="url(#af72019ae7)"><g transform="matrix(1, 0, 0, 1, 0.000000000000000222, 0.000000000000017795)"><g clip-path="url(#bc551f7bbe)"><g clip-path="url(#332655d0bc)"><g clip-path="url(#d588fa8af9)"><path fill="#c90000" d="M -100.816406 -72.6875 L 44.203125 -72.6875 L 44.203125 62.308594 L -100.816406 62.308594 Z M -100.816406 -72.6875 " fill-opacity="1" fill-rule="nonzero"/></g></g></g></g></g></g><g clip-path="url(#2fde66bf64)"><g clip-path="url(#57ff340613)"><g transform="matrix(1, 0, 0, 1, 0.000000000000000222, 178)"><g clip-path="url(#d698e9b853)"><g clip-path="url(#7c51a5607e)"><g clip-path="url(#0163e4305a)"><path fill="#c90000" d="M -77.773438 0.285156 L 189.132812 0.285156 L 189.132812 192.757812 L -77.773438 192.757812 Z M -77.773438 0.285156 " fill-opacity="1" fill-rule="nonzero"/></g></g></g></g></g></g><g clip-path="url(#30b7a15f42)"><g clip-path="url(#a271f6db48)"><g transform="matrix(1, 0, 0, 1, 0.000000000000000222, 303)"><g clip-path="url(#e80899b5f4)"><g clip-path="url(#7bd8a8e7a9)"><g clip-path="url(#3bd7ba8d2f)"><path fill="#000000" d="M -90.96875 0.261719 L 44.03125 0.261719 L 44.03125 135.257812 L -90.96875 135.257812 Z M -90.96875 0.261719 " fill-opacity="1" fill-rule="nonzero"/></g></g></g></g></g></g><g clip-path="url(#6d6b0190f8)"><g clip-path="url(#0e36f6d86b)"><g transform="matrix(1, 0, 0, 1, 0.000000000000000222, 235)"><g clip-path="url(#d674a51c2c)"><g clip-path="url(#3455ba5da0)"><g clip-path="url(#875195c9da)"><path fill="#c90000" d="M -23.46875 0.761719 L 111.527344 0.761719 L 111.527344 135.757812 L -23.46875 135.757812 Z M -23.46875 0.761719 " fill-opacity="1" fill-rule="nonzero"/></g></g></g></g></g></g></g></g></g></svg>