<svg xmlns="http://www.w3.org/2000/svg" xmlns:xlink="http://www.w3.org/1999/xlink" width="1280" zoomAndPan="magnify" viewBox="0 0 960 540.000001" height="720" preserveAspectRatio="xMidYMid meet" version="1.0"><defs><clipPath id="c69a0e9f24"><path d="M 804 0 L 959.113281 0 L 959.113281 195 L 804 195 Z M 804 0 " clip-rule="nonzero"/></clipPath><clipPath id="2e10702247"><path d="M 786.960938 16.585938 L 982.546875 -72.691406 L 1071.820312 122.894531 L 876.234375 212.171875 Z M 786.960938 16.585938 " clip-rule="nonzero"/></clipPath><clipPath id="6dbc7a6776"><path d="M 835.957031 93.3125 C 844.769531 97.554688 853.066406 115.703125 850.542969 125.15625 C 847.371094 137.039062 848.15625 150.03125 853.636719 162.042969 C 866.296875 189.78125 898.9375 201.808594 926.375 189.285156 C 938.449219 183.773438 947.5625 174.484375 952.953125 163.453125 C 957.257812 154.652344 975.519531 146.3125 984.988281 148.828125 C 996.855469 151.984375 1009.84375 151.183594 1021.921875 145.671875 C 1049.355469 133.148438 1061.648438 100.613281 1048.988281 72.875 C 1043.464844 60.773438 1033.996094 51.65625 1022.804688 46.292969 C 1014.015625 42.082031 1005.835938 24.160156 1008.398438 14.753906 C 1011.671875 2.761719 1010.960938 -10.433594 1005.378906 -22.667969 C 992.824219 -50.167969 960.082031 -62.4375 932.644531 -49.914062 C 920.671875 -44.449219 911.648438 -35.308594 906.234375 -24.441406 C 901.828125 -15.589844 882.839844 -7 873.265625 -9.46875 C 861.570312 -12.484375 848.796875 -11.640625 836.859375 -6.191406 C 809.425781 6.332031 797.242188 39.109375 809.792969 66.609375 C 815.347656 78.78125 824.785156 87.929688 835.957031 93.3125 Z M 835.957031 93.3125 " clip-rule="nonzero"/></clipPath><clipPath id="c2fb9f4a5a"><path d="M 0 0 L 155.113281 0 L 155.113281 195 L 0 195 Z M 0 0 " clip-rule="nonzero"/></clipPath><clipPath id="42bf34fe64"><path d="M -17.039062 16.585938 L 178.546875 -72.691406 L 267.820312 122.894531 L 72.234375 212.171875 Z M -17.039062 16.585938 " clip-rule="nonzero"/></clipPath><clipPath id="d9c7864cc5"><path d="M 31.957031 93.3125 C 40.769531 97.554688 49.066406 115.703125 46.542969 125.15625 C 43.371094 137.039062 44.15625 150.03125 49.636719 162.042969 C 62.296875 189.78125 94.9375 201.808594 122.375 189.285156 C 134.449219 183.773438 143.5625 174.484375 148.953125 163.453125 C 153.257812 154.652344 171.519531 146.3125 180.988281 148.828125 C 192.855469 151.984375 205.84375 151.183594 217.921875 145.671875 C 245.355469 133.148438 257.648438 100.613281 244.988281 72.875 C 239.464844 60.773438 229.996094 51.65625 218.804688 46.292969 C 210.015625 42.082031 201.835938 24.160156 204.398438 14.753906 C 207.671875 2.761719 206.960938 -10.433594 201.378906 -22.667969 C 188.824219 -50.167969 156.082031 -62.4375 128.644531 -49.914062 C 116.671875 -44.449219 107.648438 -35.308594 102.234375 -24.441406 C 97.828125 -15.589844 78.839844 -7 69.265625 -9.46875 C 57.570312 -12.484375 44.796875 -11.640625 32.859375 -6.191406 C 5.425781 6.332031 -6.757812 39.109375 5.792969 66.609375 C 11.347656 78.78125 20.785156 87.929688 31.957031 93.3125 Z M 31.957031 93.3125 " clip-rule="nonzero"/></clipPath><clipPath id="2c828e1bae"><rect x="0" width="156" y="0" height="195"/></clipPath></defs><g clip-path="url(#c69a0e9f24)"><g clip-path="url(#2e10702247)"><g clip-path="url(#6dbc7a6776)"><g transform="matrix(1, 0, 0, 1, 804, 0.000000000000017795)"><g clip-path="url(#2c828e1bae)"><g clip-path="url(#c2fb9f4a5a)"><g clip-path="url(#42bf34fe64)"><g clip-path="url(#d9c7864cc5)"><path fill="#c90000" d="M -17.039062 16.585938 L 178.546875 -72.691406 L 267.820312 122.894531 L 72.234375 212.171875 Z M -17.039062 16.585938 " fill-opacity="1" fill-rule="nonzero"/></g></g></g></g></g></g></g></g></svg>