<svg xmlns="http://www.w3.org/2000/svg" xmlns:xlink="http://www.w3.org/1999/xlink" width="1280" zoomAndPan="magnify" viewBox="0 0 960 540.000001" height="720" preserveAspectRatio="xMidYMid meet" version="1.0"><defs><clipPath id="24596c2226"><path d="M 848 0 L 959.113281 0 L 959.113281 129 L 848 129 Z M 848 0 " clip-rule="nonzero"/></clipPath><clipPath id="27a510a0df"><path d="M 835.445312 -5.542969 L 982.542969 -72.6875 L 1049.6875 74.414062 L 902.589844 141.558594 Z M 835.445312 -5.542969 " clip-rule="nonzero"/></clipPath><clipPath id="9490affedb"><path d="M 872.292969 52.160156 C 878.921875 55.355469 885.164062 69.003906 883.265625 76.113281 C 880.878906 85.050781 881.46875 94.820312 885.59375 103.855469 C 895.113281 124.71875 919.664062 133.761719 940.296875 124.34375 C 949.378906 120.199219 956.234375 113.210938 960.289062 104.914062 C 963.523438 98.296875 977.261719 92.023438 984.382812 93.917969 C 993.308594 96.289062 1003.078125 95.6875 1012.160156 91.542969 C 1032.792969 82.125 1042.039062 57.652344 1032.515625 36.789062 C 1028.363281 27.691406 1021.238281 20.832031 1012.824219 16.800781 C 1006.214844 13.632812 1000.0625 0.152344 1001.988281 -6.921875 C 1004.449219 -15.941406 1003.917969 -25.863281 999.71875 -35.066406 C 990.277344 -55.75 965.648438 -64.976562 945.015625 -55.558594 C 936.011719 -51.449219 929.222656 -44.574219 925.152344 -36.398438 C 921.835938 -29.746094 907.554688 -23.28125 900.355469 -25.140625 C 891.558594 -27.40625 881.949219 -26.773438 872.972656 -22.675781 C 852.339844 -13.253906 843.175781 11.394531 852.617188 32.078125 C 856.796875 41.234375 863.890625 48.113281 872.292969 52.160156 Z M 872.292969 52.160156 " clip-rule="nonzero"/></clipPath><clipPath id="179e6dcd91"><path d="M 0 0 L 111.113281 0 L 111.113281 129 L 0 129 Z M 0 0 " clip-rule="nonzero"/></clipPath><clipPath id="6939d8e042"><path d="M -12.554688 -5.542969 L 134.542969 -72.6875 L 201.6875 74.414062 L 54.589844 141.558594 Z M -12.554688 -5.542969 " clip-rule="nonzero"/></clipPath><clipPath id="0789d0a855"><path d="M 24.292969 52.160156 C 30.921875 55.355469 37.164062 69.003906 35.265625 76.113281 C 32.878906 85.050781 33.46875 94.820312 37.59375 103.855469 C 47.113281 124.71875 71.664062 133.761719 92.296875 124.34375 C 101.378906 120.199219 108.234375 113.210938 112.289062 104.914062 C 115.523438 98.296875 129.261719 92.023438 136.382812 93.917969 C 145.308594 96.289062 155.078125 95.6875 164.160156 91.542969 C 184.792969 82.125 194.039062 57.652344 184.515625 36.789062 C 180.363281 27.691406 173.238281 20.832031 164.824219 16.800781 C 158.214844 13.632812 152.0625 0.152344 153.988281 -6.921875 C 156.449219 -15.941406 155.917969 -25.863281 151.71875 -35.066406 C 142.277344 -55.75 117.648438 -64.976562 97.015625 -55.558594 C 88.011719 -51.449219 81.222656 -44.574219 77.152344 -36.398438 C 73.835938 -29.746094 59.554688 -23.28125 52.355469 -25.140625 C 43.558594 -27.40625 33.949219 -26.773438 24.972656 -22.675781 C 4.339844 -13.253906 -4.824219 11.394531 4.617188 32.078125 C 8.796875 41.234375 15.890625 48.113281 24.292969 52.160156 Z M 24.292969 52.160156 " clip-rule="nonzero"/></clipPath><clipPath id="9f04088826"><rect x="0" width="112" y="0" height="129"/></clipPath></defs><g clip-path="url(#24596c2226)"><g clip-path="url(#27a510a0df)"><g clip-path="url(#9490affedb)"><g transform="matrix(1, 0, 0, 1, 848, 0.000000000000017795)"><g clip-path="url(#9f04088826)"><g clip-path="url(#179e6dcd91)"><g clip-path="url(#6939d8e042)"><g clip-path="url(#0789d0a855)"><path fill="#c90000" d="M -12.554688 -5.542969 L 134.542969 -72.6875 L 201.6875 74.414062 L 54.589844 141.558594 Z M -12.554688 -5.542969 " fill-opacity="1" fill-rule="nonzero"/></g></g></g></g></g></g></g></g></svg>