<svg xmlns="http://www.w3.org/2000/svg" xmlns:xlink="http://www.w3.org/1999/xlink" width="1280" zoomAndPan="magnify" viewBox="0 0 960 540.000001" height="720" preserveAspectRatio="xMidYMid meet" version="1.0"><defs><clipPath id="49c0afaf9b"><path d="M 0.886719 374 L 268 374 L 268 539 L 0.886719 539 Z M 0.886719 374 " clip-rule="nonzero"/></clipPath><clipPath id="d8b7281a44"><path d="M 0.886719 33 L 247 33 L 247 165 L 0.886719 165 Z M 0.886719 33 " clip-rule="nonzero"/></clipPath><clipPath id="b97354408c"><path d="M 250.957031 214.015625 L 66.398438 294.726562 L -17.78125 102.234375 L 166.78125 21.523438 Z M 250.957031 214.015625 " clip-rule="nonzero"/></clipPath><clipPath id="83c78677cd"><path d="M 78.058594 289.625 L 239.296875 219.113281 C 245.738281 216.296875 248.675781 208.792969 245.859375 202.355469 L 174.640625 39.503906 C 158.21875 28.683594 119.773438 26.34375 86.289062 78.140625 C 55.027344 135.015625 9.125 129.886719 -9.917969 120.210938 L 61.296875 283.066406 C 64.113281 289.503906 71.617188 292.441406 78.058594 289.625 Z M 78.058594 289.625 " clip-rule="nonzero"/></clipPath><clipPath id="2b809bdd39"><path d="M 0.886719 0 L 247 0 L 247 132 L 0.886719 132 Z M 0.886719 0 " clip-rule="nonzero"/></clipPath><clipPath id="0ccc358560"><path d="M 250.957031 181.015625 L 66.398438 261.726562 L -17.78125 69.234375 L 166.78125 -11.476562 Z M 250.957031 181.015625 " clip-rule="nonzero"/></clipPath><clipPath id="5c243ad7d9"><path d="M 78.058594 256.625 L 239.296875 186.113281 C 245.738281 183.296875 248.675781 175.792969 245.859375 169.355469 L 174.640625 6.503906 C 158.21875 -4.316406 119.773438 -6.65625 86.289062 45.140625 C 55.027344 102.015625 9.125 96.886719 -9.917969 87.210938 L 61.296875 250.066406 C 64.113281 256.503906 71.617188 259.441406 78.058594 256.625 Z M 78.058594 256.625 " clip-rule="nonzero"/></clipPath><clipPath id="917a832450"><rect x="0" width="247" y="0" height="132"/></clipPath><clipPath id="8d99c4dfbf"><path d="M 0.886719 112 L 11 112 L 11 165 L 0.886719 165 Z M 0.886719 112 " clip-rule="nonzero"/></clipPath><clipPath id="d304c5f005"><path d="M -81.882812 203.902344 L -74.183594 109.371094 L 13.816406 116.539062 L 6.117188 211.070312 Z M -81.882812 203.902344 " clip-rule="nonzero"/></clipPath><clipPath id="31adae346b"><path d="M -78.035156 156.691406 C -80.160156 182.765625 -62.183594 205.507812 -37.882812 207.488281 C -13.582031 209.464844 7.839844 189.933594 9.964844 163.859375 C 12.085938 137.789062 -5.890625 115.046875 -30.191406 113.066406 C -54.492188 111.089844 -75.914062 130.621094 -78.035156 156.691406 Z M -78.035156 156.691406 " clip-rule="nonzero"/></clipPath><clipPath id="22eed7aed8"><path d="M 0.886719 0 L 11 0 L 11 53 L 0.886719 53 Z M 0.886719 0 " clip-rule="nonzero"/></clipPath><clipPath id="6cdc5aebe6"><path d="M -81.882812 91.902344 L -74.183594 -2.628906 L 13.816406 4.539062 L 6.117188 99.070312 Z M -81.882812 91.902344 " clip-rule="nonzero"/></clipPath><clipPath id="a30b40e8b8"><path d="M -78.035156 44.691406 C -80.160156 70.765625 -62.183594 93.507812 -37.882812 95.488281 C -13.582031 97.464844 7.839844 77.933594 9.964844 51.859375 C 12.085938 25.789062 -5.890625 3.046875 -30.191406 1.066406 C -54.492188 -0.910156 -75.914062 18.621094 -78.035156 44.691406 Z M -78.035156 44.691406 " clip-rule="nonzero"/></clipPath><clipPath id="b529e4bfe5"><rect x="0" width="11" y="0" height="53"/></clipPath><clipPath id="823c03d2ce"><path d="M 89 33 L 216 33 L 216 165 L 89 165 Z M 89 33 " clip-rule="nonzero"/></clipPath><clipPath id="f646a080bc"><path d="M 82.941406 202.210938 L 97.152344 27.730469 L 222.621094 37.953125 L 208.410156 212.429688 Z M 82.941406 202.210938 " clip-rule="nonzero"/></clipPath><clipPath id="904317b2d6"><path d="M 90.027344 115.203125 C 86.113281 163.253906 111.027344 204.496094 145.675781 207.320312 C 180.320312 210.140625 211.582031 173.476562 215.496094 125.421875 C 219.410156 77.371094 194.496094 36.128906 159.847656 33.308594 C 125.203125 30.484375 93.941406 67.152344 90.027344 115.203125 Z M 90.027344 115.203125 " clip-rule="nonzero"/></clipPath><clipPath id="d9e2d1a812"><path d="M 0 0 L 127 0 L 127 132 L 0 132 Z M 0 0 " clip-rule="nonzero"/></clipPath><clipPath id="4d19c2ee8d"><path d="M -6.058594 169.210938 L 8.152344 -5.269531 L 133.621094 4.953125 L 119.410156 179.429688 Z M -6.058594 169.210938 " clip-rule="nonzero"/></clipPath><clipPath id="fadd22f3c3"><path d="M 1.027344 82.203125 C -2.886719 130.253906 22.027344 171.496094 56.675781 174.320312 C 91.320312 177.140625 122.582031 140.476562 126.496094 92.421875 C 130.410156 44.371094 105.496094 3.128906 70.847656 0.308594 C 36.203125 -2.515625 4.941406 34.152344 1.027344 82.203125 Z M 1.027344 82.203125 " clip-rule="nonzero"/></clipPath><clipPath id="fe28719ffb"><rect x="0" width="127" y="0" height="132"/></clipPath><clipPath id="fe3b7af64f"><path d="M 167 132 L 256 132 L 256 165 L 167 165 Z M 167 132 " clip-rule="nonzero"/></clipPath><clipPath id="9602b598d2"><path d="M 163.707031 217.445312 L 170.875 129.445312 L 258.875 136.613281 L 251.707031 224.613281 Z M 163.707031 217.445312 " clip-rule="nonzero"/></clipPath><clipPath id="e48cb32991"><path d="M 167.292969 173.445312 C 165.3125 197.746094 183.40625 219.050781 207.707031 221.03125 C 232.007812 223.007812 253.3125 204.914062 255.292969 180.613281 C 257.269531 156.3125 239.175781 135.007812 214.875 133.027344 C 190.574219 131.050781 169.269531 149.144531 167.292969 173.445312 Z M 167.292969 173.445312 " clip-rule="nonzero"/></clipPath><clipPath id="074dc457e4"><path d="M 0 0 L 89 0 L 89 33 L 0 33 Z M 0 0 " clip-rule="nonzero"/></clipPath><clipPath id="00d79aa83d"><path d="M -3.292969 85.445312 L 3.875 -2.554688 L 91.875 4.613281 L 84.707031 92.613281 Z M -3.292969 85.445312 " clip-rule="nonzero"/></clipPath><clipPath id="3c2bebd25d"><path d="M 0.292969 41.445312 C -1.6875 65.746094 16.40625 87.050781 40.707031 89.03125 C 65.007812 91.007812 86.3125 72.914062 88.292969 48.613281 C 90.269531 24.3125 72.175781 3.007812 47.875 1.027344 C 23.574219 -0.949219 2.269531 17.144531 0.292969 41.445312 Z M 0.292969 41.445312 " clip-rule="nonzero"/></clipPath><clipPath id="08885b7ed0"><rect x="0" width="89" y="0" height="33"/></clipPath><clipPath id="120e140c3f"><path d="M 126 85 L 216 85 L 216 165 L 126 165 Z M 126 85 " clip-rule="nonzero"/></clipPath><clipPath id="78547e6823"><path d="M 123.292969 169.863281 L 130.460938 81.859375 L 218.460938 89.027344 L 211.292969 177.03125 Z M 123.292969 169.863281 " clip-rule="nonzero"/></clipPath><clipPath id="f483c8037b"><path d="M 126.875 125.859375 C 124.894531 150.160156 142.992188 171.464844 167.292969 173.445312 C 191.59375 175.425781 212.894531 157.328125 214.875 133.027344 C 216.855469 108.730469 198.761719 87.425781 174.460938 85.445312 C 150.160156 83.464844 128.855469 101.5625 126.875 125.859375 Z M 126.875 125.859375 " clip-rule="nonzero"/></clipPath><clipPath id="913f9906e6"><path d="M 0 0 L 90 0 L 90 80 L 0 80 Z M 0 0 " clip-rule="nonzero"/></clipPath><clipPath id="0ed9dda20c"><path d="M -2.707031 84.863281 L 4.460938 -3.140625 L 92.460938 4.027344 L 85.292969 92.03125 Z M -2.707031 84.863281 " clip-rule="nonzero"/></clipPath><clipPath id="7b9e150c04"><path d="M 0.875 40.859375 C -1.105469 65.160156 16.992188 86.464844 41.292969 88.445312 C 65.59375 90.425781 86.894531 72.328125 88.875 48.027344 C 90.855469 23.730469 72.761719 2.425781 48.460938 0.445312 C 24.160156 -1.535156 2.855469 16.5625 0.875 40.859375 Z M 0.875 40.859375 " clip-rule="nonzero"/></clipPath><clipPath id="222ce26cfb"><rect x="0" width="90" y="0" height="80"/></clipPath><clipPath id="6dd62b4898"><rect x="0" width="268" y="0" height="165"/></clipPath></defs><g clip-path="url(#49c0afaf9b)"><g transform="matrix(1, 0, 0, 1, 0.000000000000000222, 374)"><g clip-path="url(#6dd62b4898)"><g clip-path="url(#d8b7281a44)"><g clip-path="url(#b97354408c)"><g clip-path="url(#83c78677cd)"><g transform="matrix(1, 0, 0, 1, 0.000000000000000222, 33)"><g clip-path="url(#917a832450)"><g clip-path="url(#2b809bdd39)"><g clip-path="url(#0ccc358560)"><g clip-path="url(#5c243ad7d9)"><path fill="#c90000" d="M 250.957031 181.015625 L 66.398438 261.726562 L -18.726562 67.070312 L 165.835938 -13.640625 Z M 250.957031 181.015625 " fill-opacity="1" fill-rule="nonzero"/></g></g></g></g></g></g></g></g><g clip-path="url(#8d99c4dfbf)"><g clip-path="url(#d304c5f005)"><g clip-path="url(#31adae346b)"><g transform="matrix(1, 0, 0, 1, 0.000000000000000222, 112)"><g clip-path="url(#b529e4bfe5)"><g clip-path="url(#22eed7aed8)"><g clip-path="url(#6cdc5aebe6)"><g clip-path="url(#a30b40e8b8)"><path fill="#c90000" d="M -81.882812 91.902344 L -74.183594 -2.628906 L 13.816406 4.539062 L 6.117188 99.070312 Z M -81.882812 91.902344 " fill-opacity="1" fill-rule="nonzero"/></g></g></g></g></g></g></g></g><g clip-path="url(#823c03d2ce)"><g clip-path="url(#f646a080bc)"><g clip-path="url(#904317b2d6)"><g transform="matrix(1, 0, 0, 1, 89, 33)"><g clip-path="url(#fe28719ffb)"><g clip-path="url(#d9e2d1a812)"><g clip-path="url(#4d19c2ee8d)"><g clip-path="url(#fadd22f3c3)"><path fill="#c90000" d="M -6.058594 169.210938 L 8.113281 -4.777344 L 133.582031 5.441406 L 119.410156 179.429688 Z M -6.058594 169.210938 " fill-opacity="1" fill-rule="nonzero"/></g></g></g></g></g></g></g></g><g clip-path="url(#fe3b7af64f)"><g clip-path="url(#9602b598d2)"><g clip-path="url(#e48cb32991)"><g transform="matrix(1, 0, 0, 1, 167, 132)"><g clip-path="url(#08885b7ed0)"><g clip-path="url(#074dc457e4)"><g clip-path="url(#00d79aa83d)"><g clip-path="url(#3c2bebd25d)"><path fill="#000000" d="M -3.292969 85.445312 L 3.875 -2.554688 L 91.875 4.613281 L 84.707031 92.613281 Z M -3.292969 85.445312 " fill-opacity="1" fill-rule="nonzero"/></g></g></g></g></g></g></g></g><g clip-path="url(#120e140c3f)"><g clip-path="url(#78547e6823)"><g clip-path="url(#f483c8037b)"><g transform="matrix(1, 0, 0, 1, 126, 85)"><g clip-path="url(#222ce26cfb)"><g clip-path="url(#913f9906e6)"><g clip-path="url(#0ed9dda20c)"><g clip-path="url(#7b9e150c04)"><path fill="#c90000" d="M -2.707031 84.863281 L 4.460938 -3.140625 L 92.460938 4.027344 L 85.292969 92.03125 Z M -2.707031 84.863281 " fill-opacity="1" fill-rule="nonzero"/></g></g></g></g></g></g></g></g></g></g></g></svg>