<svg xmlns="http://www.w3.org/2000/svg" xmlns:xlink="http://www.w3.org/1999/xlink" width="1280" zoomAndPan="magnify" viewBox="0 0 960 540.000001" height="720" preserveAspectRatio="xMidYMid meet" version="1.0"><defs><clipPath id="2053fc9f39"><path d="M 0.886719 438 L 172 438 L 172 539 L 0.886719 539 Z M 0.886719 438 " clip-rule="nonzero"/></clipPath><clipPath id="c45ee88c53"><path d="M 0.886719 21 L 157 21 L 157 101 L 0.886719 101 Z M 0.886719 21 " clip-rule="nonzero"/></clipPath><clipPath id="f08f749308"><path d="M 160.71875 139.824219 L 39.753906 192.722656 L -15.410156 66.582031 L 105.554688 13.679688 Z M 160.71875 139.824219 " clip-rule="nonzero"/></clipPath><clipPath id="d6f44e8526"><path d="M 51.207031 187.152344 L 148.382812 144.660156 C 154.824219 141.84375 157.761719 134.339844 154.945312 127.898438 L 110.21875 25.625 C 99.496094 18.5625 74.394531 17.035156 52.535156 50.851562 C 32.125 87.984375 2.15625 84.632812 -10.277344 78.320312 L 34.449219 180.59375 C 37.265625 187.03125 44.769531 189.96875 51.207031 187.152344 Z M 51.207031 187.152344 " clip-rule="nonzero"/></clipPath><clipPath id="a929196cc6"><path d="M 0.886719 0 L 157 0 L 157 80 L 0.886719 80 Z M 0.886719 0 " clip-rule="nonzero"/></clipPath><clipPath id="bef7bacfec"><path d="M 160.71875 118.824219 L 39.753906 171.722656 L -15.410156 45.582031 L 105.554688 -7.320312 Z M 160.71875 118.824219 " clip-rule="nonzero"/></clipPath><clipPath id="bd76f11f4a"><path d="M 51.207031 166.152344 L 148.382812 123.660156 C 154.824219 120.84375 157.761719 113.339844 154.945312 106.898438 L 110.21875 4.625 C 99.496094 -2.4375 74.394531 -3.964844 52.535156 29.851562 C 32.125 66.984375 2.15625 63.632812 -10.277344 57.320312 L 34.449219 159.59375 C 37.265625 166.03125 44.769531 168.96875 51.207031 166.152344 Z M 51.207031 166.152344 " clip-rule="nonzero"/></clipPath><clipPath id="61d0a9a056"><rect x="0" width="157" y="0" height="80"/></clipPath><clipPath id="6297f4cb20"><path d="M 0.886719 73 L 3 73 L 3 101 L 0.886719 101 Z M 0.886719 73 " clip-rule="nonzero"/></clipPath><clipPath id="bcdc6428bf"><path d="M -57.257812 132.957031 L -52.230469 71.242188 L 5.222656 75.921875 L 0.195312 137.636719 Z M -57.257812 132.957031 " clip-rule="nonzero"/></clipPath><clipPath id="837b555eff"><path d="M -54.75 102.136719 C -56.136719 119.15625 -44.398438 134.003906 -28.53125 135.296875 C -12.667969 136.589844 1.316406 123.835938 2.703125 106.816406 C 4.089844 89.792969 -7.644531 74.945312 -23.511719 73.652344 C -39.375 72.359375 -53.363281 85.113281 -54.75 102.136719 Z M -54.75 102.136719 " clip-rule="nonzero"/></clipPath><clipPath id="1825acc7b4"><path d="M 0.886719 0 L 3 0 L 3 28 L 0.886719 28 Z M 0.886719 0 " clip-rule="nonzero"/></clipPath><clipPath id="9e2ca9369d"><path d="M -57.257812 59.957031 L -52.230469 -1.757812 L 5.222656 2.921875 L 0.195312 64.636719 Z M -57.257812 59.957031 " clip-rule="nonzero"/></clipPath><clipPath id="89d612558d"><path d="M -54.75 29.136719 C -56.136719 46.15625 -44.398438 61.003906 -28.53125 62.296875 C -12.667969 63.589844 1.316406 50.835938 2.703125 33.816406 C 4.089844 16.792969 -7.644531 1.945312 -23.511719 0.652344 C -39.375 -0.640625 -53.363281 12.113281 -54.75 29.136719 Z M -54.75 29.136719 " clip-rule="nonzero"/></clipPath><clipPath id="9eee057c87"><rect x="0" width="3" y="0" height="28"/></clipPath><clipPath id="25756f1b07"><path d="M 54 21 L 138 21 L 138 101 L 54 101 Z M 54 21 " clip-rule="nonzero"/></clipPath><clipPath id="1a69c96d94"><path d="M 50.351562 131.851562 L 59.628906 17.941406 L 141.542969 24.613281 L 132.265625 138.523438 Z M 50.351562 131.851562 " clip-rule="nonzero"/></clipPath><clipPath id="f375dc592f"><path d="M 54.976562 75.046875 C 52.421875 106.417969 68.6875 133.34375 91.308594 135.1875 C 113.925781 137.03125 134.335938 113.09375 136.890625 81.71875 C 139.445312 50.347656 123.179688 23.421875 100.5625 21.582031 C 77.941406 19.738281 57.53125 43.675781 54.976562 75.046875 Z M 54.976562 75.046875 " clip-rule="nonzero"/></clipPath><clipPath id="a98a30da23"><path d="M 0 0 L 84 0 L 84 80 L 0 80 Z M 0 0 " clip-rule="nonzero"/></clipPath><clipPath id="ec1e6fbac0"><path d="M -3.648438 110.851562 L 5.628906 -3.058594 L 87.542969 3.613281 L 78.265625 117.523438 Z M -3.648438 110.851562 " clip-rule="nonzero"/></clipPath><clipPath id="42eba8db19"><path d="M 0.976562 54.046875 C -1.578125 85.417969 14.6875 112.34375 37.308594 114.1875 C 59.925781 116.03125 80.335938 92.09375 82.890625 60.71875 C 85.445312 29.347656 69.179688 2.421875 46.5625 0.582031 C 23.941406 -1.261719 3.53125 22.675781 0.976562 54.046875 Z M 0.976562 54.046875 " clip-rule="nonzero"/></clipPath><clipPath id="5b4c0b488b"><rect x="0" width="84" y="0" height="80"/></clipPath><clipPath id="ec45f8906a"><path d="M 105 86 L 163 86 L 163 101 L 105 101 Z M 105 86 " clip-rule="nonzero"/></clipPath><clipPath id="a734860251"><path d="M 103.078125 141.800781 L 107.761719 84.347656 L 165.210938 89.027344 L 160.53125 146.480469 Z M 103.078125 141.800781 " clip-rule="nonzero"/></clipPath><clipPath id="ff4a37c4a7"><path d="M 105.417969 113.074219 C 104.128906 128.9375 115.941406 142.847656 131.804688 144.140625 C 147.671875 145.429688 161.582031 133.617188 162.871094 117.753906 C 164.164062 101.886719 152.351562 87.976562 136.484375 86.6875 C 120.621094 85.394531 106.710938 97.207031 105.417969 113.074219 Z M 105.417969 113.074219 " clip-rule="nonzero"/></clipPath><clipPath id="478dd35d35"><path d="M 0 0 L 58 0 L 58 15 L 0 15 Z M 0 0 " clip-rule="nonzero"/></clipPath><clipPath id="31717b9701"><path d="M -1.921875 55.800781 L 2.761719 -1.652344 L 60.210938 3.027344 L 55.53125 60.480469 Z M -1.921875 55.800781 " clip-rule="nonzero"/></clipPath><clipPath id="d05a9dc878"><path d="M 0.417969 27.074219 C -0.871094 42.9375 10.941406 56.847656 26.804688 58.140625 C 42.671875 59.429688 56.582031 47.617188 57.871094 31.753906 C 59.164062 15.886719 47.351562 1.976562 31.484375 0.6875 C 15.621094 -0.605469 1.710938 11.207031 0.417969 27.074219 Z M 0.417969 27.074219 " clip-rule="nonzero"/></clipPath><clipPath id="d9d20ec966"><rect x="0" width="58" y="0" height="15"/></clipPath><clipPath id="8392266947"><path d="M 78 55 L 137 55 L 137 101 L 78 101 Z M 78 55 " clip-rule="nonzero"/></clipPath><clipPath id="b9cdf85e67"><path d="M 76.691406 110.734375 L 81.375 53.28125 L 138.828125 57.960938 L 134.144531 115.414062 Z M 76.691406 110.734375 " clip-rule="nonzero"/></clipPath><clipPath id="3a6c320937"><path d="M 79.035156 82.007812 C 77.742188 97.871094 89.554688 111.78125 105.417969 113.074219 C 121.285156 114.363281 135.195312 102.550781 136.484375 86.6875 C 137.777344 70.820312 125.964844 56.910156 110.101562 55.621094 C 94.234375 54.328125 80.324219 66.140625 79.035156 82.007812 Z M 79.035156 82.007812 " clip-rule="nonzero"/></clipPath><clipPath id="f0dbe2cf14"><path d="M 0 0 L 59 0 L 59 46 L 0 46 Z M 0 0 " clip-rule="nonzero"/></clipPath><clipPath id="0bfbfb8fbe"><path d="M -1.308594 55.734375 L 3.375 -1.71875 L 60.828125 2.960938 L 56.144531 60.414062 Z M -1.308594 55.734375 " clip-rule="nonzero"/></clipPath><clipPath id="3b5a1571c4"><path d="M 1.035156 27.007812 C -0.257812 42.871094 11.554688 56.78125 27.417969 58.074219 C 43.285156 59.363281 57.195312 47.550781 58.484375 31.6875 C 59.777344 15.820312 47.964844 1.910156 32.101562 0.621094 C 16.234375 -0.671875 2.324219 11.140625 1.035156 27.007812 Z M 1.035156 27.007812 " clip-rule="nonzero"/></clipPath><clipPath id="8ff3963e1c"><rect x="0" width="59" y="0" height="46"/></clipPath><clipPath id="76a9267aca"><rect x="0" width="172" y="0" height="101"/></clipPath></defs><g clip-path="url(#2053fc9f39)"><g transform="matrix(1, 0, 0, 1, 0.000000000000000222, 438)"><g clip-path="url(#76a9267aca)"><g clip-path="url(#c45ee88c53)"><g clip-path="url(#f08f749308)"><g clip-path="url(#d6f44e8526)"><g transform="matrix(1, 0, 0, 1, 0.000000000000000222, 21)"><g clip-path="url(#61d0a9a056)"><g clip-path="url(#a929196cc6)"><g clip-path="url(#bef7bacfec)"><g clip-path="url(#bd76f11f4a)"><path fill="#c90000" d="M 160.042969 118.558594 L 39.546875 171.253906 L -16.027344 44.167969 L 104.46875 -8.527344 Z M 160.042969 118.558594 " fill-opacity="1" fill-rule="nonzero"/></g></g></g></g></g></g></g></g><g clip-path="url(#6297f4cb20)"><g clip-path="url(#bcdc6428bf)"><g clip-path="url(#837b555eff)"><g transform="matrix(1, 0, 0, 1, 0.000000000000000222, 73)"><g clip-path="url(#9eee057c87)"><g clip-path="url(#1825acc7b4)"><g clip-path="url(#9e2ca9369d)"><g clip-path="url(#89d612558d)"><path fill="#c90000" d="M -57.257812 59.957031 L -52.230469 -1.757812 L 5.222656 2.921875 L 0.195312 64.636719 Z M -57.257812 59.957031 " fill-opacity="1" fill-rule="nonzero"/></g></g></g></g></g></g></g></g><g clip-path="url(#25756f1b07)"><g clip-path="url(#1a69c96d94)"><g clip-path="url(#f375dc592f)"><g transform="matrix(1, 0, 0, 1, 54, 21)"><g clip-path="url(#5b4c0b488b)"><g clip-path="url(#a98a30da23)"><g clip-path="url(#ec1e6fbac0)"><g clip-path="url(#42eba8db19)"><path fill="#c90000" d="M -3.648438 110.851562 L 5.601562 -2.738281 L 87.515625 3.933594 L 78.265625 117.523438 Z M -3.648438 110.851562 " fill-opacity="1" fill-rule="nonzero"/></g></g></g></g></g></g></g></g><g clip-path="url(#ec45f8906a)"><g clip-path="url(#a734860251)"><g clip-path="url(#ff4a37c4a7)"><g transform="matrix(1, 0, 0, 1, 105, 86)"><g clip-path="url(#d9d20ec966)"><g clip-path="url(#478dd35d35)"><g clip-path="url(#31717b9701)"><g clip-path="url(#d05a9dc878)"><path fill="#000000" d="M -1.921875 55.800781 L 2.761719 -1.652344 L 60.210938 3.027344 L 55.53125 60.480469 Z M -1.921875 55.800781 " fill-opacity="1" fill-rule="nonzero"/></g></g></g></g></g></g></g></g><g clip-path="url(#8392266947)"><g clip-path="url(#b9cdf85e67)"><g clip-path="url(#3a6c320937)"><g transform="matrix(1, 0, 0, 1, 78, 55)"><g clip-path="url(#8ff3963e1c)"><g clip-path="url(#f0dbe2cf14)"><g clip-path="url(#0bfbfb8fbe)"><g clip-path="url(#3b5a1571c4)"><path fill="#c90000" d="M -1.308594 55.734375 L 3.375 -1.71875 L 60.828125 2.960938 L 56.144531 60.414062 Z M -1.308594 55.734375 " fill-opacity="1" fill-rule="nonzero"/></g></g></g></g></g></g></g></g></g></g></g></svg>