<svg xmlns="http://www.w3.org/2000/svg" xmlns:xlink="http://www.w3.org/1999/xlink" width="1280" zoomAndPan="magnify" viewBox="0 0 960 540.000001" height="720" preserveAspectRatio="xMidYMid meet" version="1.0"><defs><clipPath id="86764b7074"><path d="M 663 61 L 959.113281 61 L 959.113281 539 L 663 539 Z M 663 61 " clip-rule="nonzero"/></clipPath><clipPath id="baf7618e1b"><path d="M 201 94 L 296.113281 94 L 296.113281 437 L 201 437 Z M 201 94 " clip-rule="nonzero"/></clipPath><clipPath id="3900a5d453"><path d="M 536.402344 191.953125 L 430.308594 440.5625 L 177.816406 332.808594 L 283.910156 84.203125 Z M 536.402344 191.953125 " clip-rule="nonzero"/></clipPath><clipPath id="9b3886d847"><path d="M 435.300781 428.855469 L 531.40625 203.660156 C 534.164062 197.195312 531.160156 189.71875 524.695312 186.957031 L 307.914062 94.445312 C 282.484375 99.226562 243.375 132.558594 257.125 213.457031 C 277.523438 297.199219 228.753906 334.746094 201.820312 343.050781 L 418.601562 435.566406 C 425.066406 438.324219 432.542969 435.320312 435.300781 428.855469 Z M 435.300781 428.855469 " clip-rule="nonzero"/></clipPath><clipPath id="8dde5636db"><path d="M 0.726562 0.234375 L 95.113281 0.234375 L 95.113281 343 L 0.726562 343 Z M 0.726562 0.234375 " clip-rule="nonzero"/></clipPath><clipPath id="b45299125b"><path d="M 335.402344 97.953125 L 229.308594 346.5625 L -23.183594 238.808594 L 82.910156 -9.796875 Z M 335.402344 97.953125 " clip-rule="nonzero"/></clipPath><clipPath id="68768b6247"><path d="M 234.300781 334.855469 L 330.40625 109.660156 C 333.164062 103.195312 330.160156 95.71875 323.695312 92.957031 L 106.914062 0.445312 C 81.484375 5.226562 42.375 38.558594 56.125 119.457031 C 76.523438 203.199219 27.753906 240.746094 0.820312 249.050781 L 217.601562 341.566406 C 224.066406 344.324219 231.542969 341.320312 234.300781 334.855469 Z M 234.300781 334.855469 " clip-rule="nonzero"/></clipPath><clipPath id="e746035ed8"><rect x="0" width="96" y="0" height="343"/></clipPath><clipPath id="584b70aec3"><path d="M 155 343 L 296.113281 343 L 296.113281 478 L 155 478 Z M 155 343 " clip-rule="nonzero"/></clipPath><clipPath id="2682d01f7b"><path d="M 216.222656 343.148438 L 331.929688 393.878906 L 271.675781 531.320312 L 155.964844 480.589844 Z M 216.222656 343.148438 " clip-rule="nonzero"/></clipPath><clipPath id="1571a56e6f"><path d="M 0.734375 0.132812 L 141.113281 0.132812 L 141.113281 135 L 0.734375 135 Z M 0.734375 0.132812 " clip-rule="nonzero"/></clipPath><clipPath id="ea43e9a12e"><path d="M 61.222656 0.148438 L 176.929688 50.878906 L 116.675781 188.320312 L 0.964844 137.589844 Z M 61.222656 0.148438 " clip-rule="nonzero"/></clipPath><clipPath id="a6f8852799"><rect x="0" width="142" y="0" height="135"/></clipPath><clipPath id="843c0f91e0"><path d="M 127 340 L 269 340 L 269 478 L 127 478 Z M 127 340 " clip-rule="nonzero"/></clipPath><clipPath id="01679f41e3"><path d="M 211.707031 313.039062 L 296.292969 393.089844 L 184.34375 511.378906 L 99.757812 431.328125 Z M 211.707031 313.039062 " clip-rule="nonzero"/></clipPath><clipPath id="eae349b2a1"><path d="M 254 353.066406 C 230.640625 330.960938 186.65625 339.507812 155.753906 372.160156 C 124.851562 404.8125 118.738281 449.203125 142.09375 471.308594 C 165.453125 493.414062 209.4375 484.863281 240.339844 452.210938 C 271.242188 419.558594 277.355469 375.171875 254 353.066406 Z M 254 353.066406 " clip-rule="nonzero"/></clipPath><clipPath id="ef0c9bddc1"><path d="M 0 0 L 142 0 L 142 138 L 0 138 Z M 0 0 " clip-rule="nonzero"/></clipPath><clipPath id="493b20d64f"><path d="M 84.707031 -26.960938 L 169.292969 53.089844 L 57.34375 171.378906 L -27.242188 91.328125 Z M 84.707031 -26.960938 " clip-rule="nonzero"/></clipPath><clipPath id="30e8945333"><path d="M 127 13.066406 C 103.640625 -9.039062 59.65625 -0.492188 28.753906 32.160156 C -2.148438 64.8125 -8.261719 109.203125 15.09375 131.308594 C 38.453125 153.414062 82.4375 144.863281 113.339844 112.210938 C 144.242188 79.558594 150.355469 35.171875 127 13.066406 Z M 127 13.066406 " clip-rule="nonzero"/></clipPath><clipPath id="298717732c"><rect x="0" width="142" y="0" height="138"/></clipPath><clipPath id="f5a6ef6f29"><rect x="0" width="297" y="0" height="478"/></clipPath></defs><g clip-path="url(#86764b7074)"><g transform="matrix(1, 0, 0, 1, 663, 61)"><g clip-path="url(#f5a6ef6f29)"><g clip-path="url(#baf7618e1b)"><g clip-path="url(#3900a5d453)"><g clip-path="url(#9b3886d847)"><g transform="matrix(1, 0, 0, 1, 201, 94)"><g clip-path="url(#e746035ed8)"><g clip-path="url(#8dde5636db)"><g clip-path="url(#b45299125b)"><g clip-path="url(#68768b6247)"><path fill="#c90000" d="M 335.402344 97.953125 L 229.308594 346.5625 L -25.125 237.980469 L 80.96875 -10.628906 Z M 335.402344 97.953125 " fill-opacity="1" fill-rule="nonzero"/></g></g></g></g></g></g></g></g><g clip-path="url(#584b70aec3)"><g clip-path="url(#2682d01f7b)"><g transform="matrix(1, 0, 0, 1, 155, 343)"><g clip-path="url(#a6f8852799)"><g clip-path="url(#1571a56e6f)"><g clip-path="url(#ea43e9a12e)"><path fill="#c90000" d="M 61.222656 0.148438 L 176.929688 50.878906 L 116.691406 188.28125 L 0.984375 137.554688 Z M 61.222656 0.148438 " fill-opacity="1" fill-rule="nonzero"/></g></g></g></g></g></g><g clip-path="url(#843c0f91e0)"><g clip-path="url(#01679f41e3)"><g clip-path="url(#eae349b2a1)"><g transform="matrix(1, 0, 0, 1, 127, 340)"><g clip-path="url(#298717732c)"><g clip-path="url(#ef0c9bddc1)"><g clip-path="url(#493b20d64f)"><g clip-path="url(#30e8945333)"><path fill="#c90000" d="M 84.707031 -26.960938 L 169.292969 53.089844 L 57.34375 171.378906 L -27.242188 91.328125 Z M 84.707031 -26.960938 " fill-opacity="1" fill-rule="nonzero"/></g></g></g></g></g></g></g></g></g></g></g></svg>