<svg xmlns="http://www.w3.org/2000/svg" xmlns:xlink="http://www.w3.org/1999/xlink" width="1280" zoomAndPan="magnify" viewBox="0 0 960 540.000001" height="720" preserveAspectRatio="xMidYMid meet" version="1.0"><defs><clipPath id="aa01c6d751"><path d="M 667 53 L 959.113281 53 L 959.113281 539 L 667 539 Z M 667 53 " clip-rule="nonzero"/></clipPath><clipPath id="403a21f33c"><path d="M 202 94 L 292.113281 94 L 292.113281 437 L 202 437 Z M 202 94 " clip-rule="nonzero"/></clipPath><clipPath id="6300a11760"><path d="M 537.121094 191.558594 L 431.023438 440.167969 L 178.535156 332.414062 L 284.628906 83.808594 Z M 537.121094 191.558594 " clip-rule="nonzero"/></clipPath><clipPath id="5f88c9f32f"><path d="M 436.019531 428.460938 L 532.125 203.265625 C 534.882812 196.800781 531.878906 189.324219 525.414062 186.5625 L 308.632812 94.050781 C 283.203125 98.832031 244.09375 132.164062 257.839844 213.0625 C 278.242188 296.804688 229.472656 334.351562 202.535156 342.65625 L 419.320312 435.171875 C 425.785156 437.929688 433.261719 434.925781 436.019531 428.460938 Z M 436.019531 428.460938 " clip-rule="nonzero"/></clipPath><clipPath id="b0601814e6"><path d="M 0.519531 0 L 90.113281 0 L 90.113281 343 L 0.519531 343 Z M 0.519531 0 " clip-rule="nonzero"/></clipPath><clipPath id="86d610b85a"><path d="M 335.121094 97.558594 L 229.023438 346.167969 L -23.464844 238.414062 L 82.628906 -10.191406 Z M 335.121094 97.558594 " clip-rule="nonzero"/></clipPath><clipPath id="2218b83d57"><path d="M 234.019531 334.460938 L 330.125 109.265625 C 332.882812 102.800781 329.878906 95.324219 323.414062 92.5625 L 106.632812 0.0507812 C 81.203125 4.832031 42.09375 38.164062 55.839844 119.0625 C 76.242188 202.804688 27.472656 240.351562 0.535156 248.65625 L 217.320312 341.171875 C 223.785156 343.929688 231.261719 340.925781 234.019531 334.460938 Z M 234.019531 334.460938 " clip-rule="nonzero"/></clipPath><clipPath id="cd8c0dd370"><rect x="0" width="91" y="0" height="343"/></clipPath><clipPath id="72af170c94"><path d="M 156 342 L 292.113281 342 L 292.113281 486 L 156 486 Z M 156 342 " clip-rule="nonzero"/></clipPath><clipPath id="adb4e521cf"><path d="M 216.941406 342.753906 L 332.648438 393.484375 L 272.394531 530.925781 L 156.683594 480.195312 Z M 216.941406 342.753906 " clip-rule="nonzero"/></clipPath><clipPath id="0c68bfe07d"><path d="M 0.523438 0.746094 L 136.113281 0.746094 L 136.113281 144 L 0.523438 144 Z M 0.523438 0.746094 " clip-rule="nonzero"/></clipPath><clipPath id="91bd1f17d4"><path d="M 60.941406 0.753906 L 176.648438 51.484375 L 116.394531 188.925781 L 0.683594 138.195312 Z M 60.941406 0.753906 " clip-rule="nonzero"/></clipPath><clipPath id="5e895be7a7"><rect x="0" width="137" y="0" height="144"/></clipPath><clipPath id="3585d9be03"><path d="M 128 340 L 269 340 L 269 484 L 128 484 Z M 128 340 " clip-rule="nonzero"/></clipPath><clipPath id="879fbd1085"><path d="M 212.425781 312.644531 L 297.011719 392.695312 L 185.0625 510.984375 L 100.476562 430.933594 Z M 212.425781 312.644531 " clip-rule="nonzero"/></clipPath><clipPath id="b4538d9165"><path d="M 254.71875 352.671875 C 231.359375 330.566406 187.375 339.113281 156.472656 371.765625 C 125.570312 404.417969 119.453125 448.808594 142.8125 470.914062 C 166.167969 493.019531 210.15625 484.46875 241.058594 451.816406 C 271.960938 419.164062 278.074219 374.777344 254.71875 352.671875 Z M 254.71875 352.671875 " clip-rule="nonzero"/></clipPath><clipPath id="6662d08927"><path d="M 0 0 L 141 0 L 141 144 L 0 144 Z M 0 0 " clip-rule="nonzero"/></clipPath><clipPath id="12fc351add"><path d="M 84.425781 -27.355469 L 169.011719 52.695312 L 57.0625 170.984375 L -27.523438 90.933594 Z M 84.425781 -27.355469 " clip-rule="nonzero"/></clipPath><clipPath id="369d48b20a"><path d="M 126.71875 12.671875 C 103.359375 -9.433594 59.375 -0.886719 28.472656 31.765625 C -2.429688 64.417969 -8.546875 108.808594 14.8125 130.914062 C 38.167969 153.019531 82.15625 144.46875 113.058594 111.816406 C 143.960938 79.164062 150.074219 34.777344 126.71875 12.671875 Z M 126.71875 12.671875 " clip-rule="nonzero"/></clipPath><clipPath id="aed6e0a868"><rect x="0" width="141" y="0" height="144"/></clipPath><clipPath id="ff099cea0e"><rect x="0" width="293" y="0" height="486"/></clipPath></defs><g clip-path="url(#aa01c6d751)"><g transform="matrix(1, 0, 0, 1, 667, 53)"><g clip-path="url(#ff099cea0e)"><g clip-path="url(#403a21f33c)"><g clip-path="url(#6300a11760)"><g clip-path="url(#5f88c9f32f)"><g transform="matrix(1, 0, 0, 1, 202, 94)"><g clip-path="url(#cd8c0dd370)"><g clip-path="url(#b0601814e6)"><g clip-path="url(#86d610b85a)"><g clip-path="url(#2218b83d57)"><path fill="#c90000" d="M 335.121094 97.558594 L 229.023438 346.167969 L -25.410156 237.585938 L 80.6875 -11.023438 Z M 335.121094 97.558594 " fill-opacity="1" fill-rule="nonzero"/></g></g></g></g></g></g></g></g><g clip-path="url(#72af170c94)"><g clip-path="url(#adb4e521cf)"><g transform="matrix(1, 0, 0, 1, 156, 342)"><g clip-path="url(#5e895be7a7)"><g clip-path="url(#0c68bfe07d)"><g clip-path="url(#91bd1f17d4)"><path fill="#c90000" d="M 60.941406 0.753906 L 176.648438 51.484375 L 116.410156 188.886719 L 0.699219 138.160156 Z M 60.941406 0.753906 " fill-opacity="1" fill-rule="nonzero"/></g></g></g></g></g></g><g clip-path="url(#3585d9be03)"><g clip-path="url(#879fbd1085)"><g clip-path="url(#b4538d9165)"><g transform="matrix(1, 0, 0, 1, 128, 340)"><g clip-path="url(#aed6e0a868)"><g clip-path="url(#6662d08927)"><g clip-path="url(#12fc351add)"><g clip-path="url(#369d48b20a)"><path fill="#c90000" d="M 84.425781 -27.355469 L 169.011719 52.695312 L 57.0625 170.984375 L -27.523438 90.933594 Z M 84.425781 -27.355469 " fill-opacity="1" fill-rule="nonzero"/></g></g></g></g></g></g></g></g></g></g></g></svg>