<svg xmlns="http://www.w3.org/2000/svg" xmlns:xlink="http://www.w3.org/1999/xlink" width="1280" zoomAndPan="magnify" viewBox="0 0 960 540.000001" height="720" preserveAspectRatio="xMidYMid meet" version="1.0"><defs><filter x="0%" y="0%" width="100%" height="100%" id="31b1734a14"><feColorMatrix values="0 0 0 0 1 0 0 0 0 1 0 0 0 0 1 0 0 0 1 0" color-interpolation-filters="sRGB"/></filter><mask id="debe692667"><g filter="url(#31b1734a14)"><rect x="-96" width="1152" fill="#000000" y="-54" height="648.000001" fill-opacity="0.64"/></g></mask><clipPath id="9ed2a5490d"><path d="M 0.417969 0.425781 L 363.582031 0.425781 L 363.582031 288 L 0.417969 288 Z M 0.417969 0.425781 " clip-rule="nonzero"/></clipPath><clipPath id="83ce94ba81"><path d="M 269 302 L 299 302 L 299 334.84375 L 269 334.84375 Z M 269 302 " clip-rule="nonzero"/></clipPath><clipPath id="74edb8e714"><rect x="0" width="364" y="0" height="335"/></clipPath></defs><g mask="url(#debe692667)"><g transform="matrix(1, 0, 0, 1, 298, 116)"><g clip-path="url(#74edb8e714)"><g clip-path="url(#9ed2a5490d)"><path fill="#ffffff" d="M 272.855469 0.527344 C 273.707031 0.527344 274.558594 0.527344 275.414062 0.527344 C 277.769531 7.414062 279.648438 14.472656 282.804688 21.078125 C 284.0625 23.703125 284.265625 26.578125 284.1875 29.402344 C 284.125 31.726562 284.636719 33.898438 285.105469 36.109375 C 285.570312 38.296875 286.289062 39.558594 288.835938 37.957031 C 291.148438 36.5 293.324219 36.464844 294.53125 39.675781 C 294.898438 40.652344 295.875 41.554688 296.796875 42.148438 C 299.910156 44.148438 300.222656 46.835938 300.332031 50.398438 C 300.464844 54.757812 300.015625 59.644531 302.832031 63.441406 C 304.222656 65.3125 305.011719 67.164062 305.808594 69.292969 C 307.589844 74.054688 305.023438 79.089844 307.644531 84.027344 C 308.871094 86.34375 309.546875 88.359375 312.011719 89.449219 C 314.160156 90.398438 316.867188 90.847656 318.144531 92.78125 C 320.363281 96.132812 323.640625 97.9375 326.800781 100.003906 C 329.007812 101.453125 331.054688 102.980469 330.265625 106.109375 C 330.085938 106.839844 330.042969 107.570312 330.578125 108.113281 C 333.890625 111.46875 334.765625 115.617188 334.917969 120.148438 C 334.957031 121.339844 335.652344 124.136719 336.535156 123.527344 C 339.519531 121.472656 340.40625 124.90625 342.273438 125.066406 C 346.808594 125.453125 346.492188 128.402344 346.046875 131.492188 C 345.296875 136.683594 346.8125 140.167969 351.425781 142.820312 C 353.03125 143.742188 354.238281 144.984375 354.664062 146.570312 C 355.6875 150.367188 358.390625 153.257812 360.382812 156.351562 C 361.910156 158.714844 360.65625 161.882812 363.289062 163.476562 C 363.289062 174 363.289062 184.519531 363.289062 195.039062 C 358.800781 199.726562 357.292969 206.035156 355.316406 211.765625 C 352.25 220.636719 349.105469 228.90625 340.265625 233.582031 C 339.5625 233.957031 338.992188 234.746094 338.578125 235.472656 C 335.386719 241.070312 330.316406 245.585938 328.84375 252.1875 C 328.648438 253.085938 327.988281 253.589844 327.328125 254.152344 C 321.910156 258.753906 320.199219 265.300781 318.738281 271.75 C 317.65625 276.539062 315.183594 279.515625 310.398438 278.328125 C 301.5 276.113281 294.789062 280.839844 289.355469 285.917969 C 285.699219 289.328125 284.796875 287.253906 282.691406 285.695312 C 281.785156 285.023438 281.082031 284.101562 280.222656 283.367188 C 276.046875 279.820312 271.957031 279.53125 267.5 282.695312 C 265.625 284.027344 263.671875 284.5625 262.105469 282.960938 C 257.128906 277.859375 249.621094 279.027344 243.9375 275.113281 C 238.988281 271.703125 235.097656 266.785156 235.769531 260.570312 C 236.246094 256.210938 233.976562 252.859375 230.804688 250.253906 C 228.1875 248.109375 225.9375 250.164062 223.472656 251.296875 C 220.175781 252.820312 216.601562 253.820312 212.820312 253.203125 C 211.40625 252.972656 210.347656 252.339844 210.289062 250.828125 C 210.234375 249.464844 211.226562 248.808594 212.433594 248.578125 C 214.765625 248.125 217.050781 246.695312 219.492188 247.726562 C 222.863281 249.152344 224.257812 246.824219 225.382812 244.558594 C 226.734375 241.847656 225.792969 239.226562 223.34375 237.535156 C 221.082031 244.304688 221.082031 244.320312 215.898438 245.078125 C 214.871094 245.230469 213.515625 246.023438 213.003906 244.414062 C 212.636719 243.246094 213.304688 241.625 214.160156 241.453125 C 218.296875 240.621094 217.84375 237.503906 217.996094 234.59375 C 218.089844 232.832031 218.839844 231.273438 219.894531 229.917969 C 221.476562 227.898438 221.777344 225.734375 220.789062 223.070312 C 219.046875 227.90625 215.050781 230.136719 211.160156 232.710938 C 209.0625 234.09375 207.191406 236.597656 206.996094 239.378906 C 206.691406 243.597656 204.210938 242.421875 202.519531 241.089844 C 200.679688 239.640625 197.621094 238.3125 199.546875 234.710938 C 200.082031 233.707031 199.582031 232.019531 198.65625 231.128906 C 196.183594 228.753906 195.792969 224.59375 191.703125 223.515625 C 190.285156 223.140625 190.144531 221.109375 189.613281 219.617188 C 188.75 217.175781 187.9375 214.402344 184.300781 214.082031 C 180.582031 213.757812 176.230469 213.765625 173.390625 211.820312 C 168.730469 208.625 164.253906 208.253906 158.992188 208.796875 C 153.042969 209.410156 147.242188 209.722656 141.84375 212.941406 C 137.976562 215.246094 133.519531 217.457031 129.023438 217.152344 C 123.007812 216.742188 118.78125 219.78125 114.234375 222.585938 C 113.269531 223.183594 112.394531 224.058594 111.347656 224.363281 C 108.265625 225.261719 106.90625 227.304688 106.007812 230.316406 C 105.050781 233.515625 102.988281 235.972656 99.128906 236.382812 C 90.925781 237.265625 82.535156 236.21875 74.488281 238.851562 C 72.953125 239.351562 71.425781 239.707031 70.605469 241.171875 C 67.613281 246.492188 61.390625 248.089844 57.570312 252.5 C 56.929688 253.242188 55.160156 253.121094 53.898438 253.199219 C 47.925781 253.597656 41.933594 254.121094 37.019531 249.484375 C 36.378906 248.882812 35.164062 248.648438 34.214844 248.648438 C 31.035156 248.660156 30.714844 246.226562 30.160156 244.058594 C 29.621094 241.964844 29.710938 240.410156 32.507812 239.636719 C 34.746094 239.019531 34.710938 236.558594 34.242188 234.527344 C 33.828125 232.722656 33.433594 230.964844 33.59375 229.070312 C 33.914062 225.238281 32.777344 221.871094 30.394531 218.765625 C 26.75 214.015625 23.503906 208.996094 22.816406 202.808594 C 22.507812 200.023438 21.046875 197.910156 19.496094 195.617188 C 17.429688 192.566406 13.964844 190.164062 13.054688 186.816406 C 11.492188 181.074219 8.089844 177.078125 3.875 173.382812 C 2.621094 172.285156 2.179688 164.914062 3.238281 163.75 C 4.273438 162.613281 5.054688 163.640625 5.765625 164.21875 C 7.394531 165.542969 8.953125 166.949219 11.472656 169.136719 C 8.136719 162.742188 4.226562 158.113281 0.710938 153.242188 C 0.710938 145.847656 0.710938 138.453125 0.710938 131.058594 C 0.976562 130.402344 1.214844 129.730469 1.511719 129.089844 C 2.195312 127.628906 2.007812 125.101562 4.132812 125.210938 C 6.246094 125.316406 4.605469 127.976562 5.722656 129.058594 C 5.898438 129.230469 6.199219 129.269531 6.699219 129.476562 C 7.507812 127.089844 7.960938 124.253906 10.328125 123.027344 C 14.761719 120.730469 17.601562 116.808594 21.105469 113.539062 C 23.378906 111.417969 25.660156 108.050781 28.957031 108.476562 C 36.335938 109.425781 40.660156 103.742188 46.398438 101.253906 C 48.101562 100.511719 49.550781 99.460938 51.570312 99.023438 C 58.664062 97.496094 65.863281 95.773438 69.636719 88.527344 C 71.316406 85.300781 71.882812 81.445312 75.390625 79.335938 C 76.121094 78.898438 76.496094 78.011719 76.109375 77.085938 C 73.46875 70.789062 76.597656 66.28125 80.53125 61.8125 C 82.527344 59.546875 83.644531 58.5 85.023438 62.167969 C 85.753906 64.109375 86.664062 66.085938 88.574219 67.523438 C 87.84375 65.933594 90.4375 64.550781 88.5625 62.875 C 86.664062 61.175781 87.371094 59.152344 88.367188 57.425781 C 89.367188 55.691406 91.253906 56.390625 92.640625 56.820312 C 96.144531 57.90625 96.667969 56.34375 96.046875 53.433594 C 95.710938 51.851562 95.742188 50.367188 96.964844 49.054688 C 99.738281 46.074219 102.851562 43.277344 104.34375 39.378906 C 105.675781 35.894531 111.988281 37.988281 111.574219 32.710938 C 111.570312 32.675781 112.839844 32.542969 113.515625 32.457031 C 114.484375 32.328125 115.519531 32.371094 116.414062 32.039062 C 122.21875 29.898438 125.152344 30.058594 128.746094 34.875 C 132.828125 40.347656 138.410156 39.734375 143.890625 40.109375 C 145.882812 40.242188 146.75 39.292969 145.117188 37.613281 C 143.054688 35.496094 144.160156 33.75 145.519531 31.992188 C 147.523438 29.398438 149.890625 26.523438 150.703125 23.78125 C 151.980469 19.460938 154.367188 16.78125 157.742188 14.488281 C 159.535156 13.265625 161.132812 10.972656 163.695312 12.296875 C 165.945312 13.460938 168.1875 13.078125 170.34375 12.648438 C 172.238281 12.273438 175.039062 12.535156 175.128906 9.472656 C 175.21875 6.488281 172.890625 6.949219 170.90625 6.660156 C 169.40625 6.445312 167.589844 5.457031 167.789062 3.753906 C 168.011719 1.859375 170.15625 1.601562 171.578125 1.984375 C 174.609375 2.792969 177.992188 3.441406 180.371094 5.269531 C 184.84375 8.714844 190.300781 8.613281 195.230469 10.136719 C 197.1875 10.738281 199.464844 13.132812 201.417969 11.78125 C 205.398438 9.019531 209.746094 12.59375 213.886719 10.402344 C 215.421875 9.597656 218.011719 12.355469 218.933594 14.589844 C 219.480469 15.910156 213.414062 24.34375 211.910156 24.652344 C 210.851562 24.863281 209.613281 25.101562 209.867188 26.285156 C 210.796875 30.671875 208.074219 33.46875 205.871094 36.582031 C 205.132812 37.628906 203.695312 38.996094 205.300781 40.3125 C 209.019531 43.363281 212.449219 47.527344 216.757812 48.925781 C 224.605469 51.476562 229.4375 58.996094 237.675781 60.503906 C 238.371094 60.628906 239.167969 61.492188 239.476562 62.203125 C 241.019531 65.707031 244.273438 66.992188 247.40625 68.183594 C 250.460938 69.34375 253.460938 68.640625 255.1875 65.609375 C 260.523438 56.238281 263.117188 46.136719 262.984375 35.320312 C 262.882812 26.980469 263.496094 18.75 267.53125 11.160156 C 268.195312 9.917969 268.863281 8.515625 268.929688 7.160156 C 269.0625 4.15625 270.542969 2.144531 272.855469 0.527344 Z M 272.855469 0.527344 " fill-opacity="1" fill-rule="nonzero"/></g><g clip-path="url(#83ce94ba81)"><path fill="#ffffff" d="M 269.972656 308.148438 C 272.449219 313.050781 271.722656 319.972656 274.027344 326.152344 C 275.289062 329.527344 276.832031 333.070312 281.492188 333.96875 C 286.296875 334.894531 288.671875 330.089844 292.871094 330.082031 C 292.933594 330.082031 292.996094 329.84375 293.046875 329.714844 C 295.378906 323.671875 298.597656 317.960938 298.828125 311.195312 C 298.996094 306.324219 298.042969 305.035156 293.398438 306.105469 C 287.34375 307.5 281.414062 308.761719 276.300781 303.695312 C 276.027344 303.429688 275.523438 303.390625 275.125 303.257812 C 271.113281 301.921875 270.050781 302.660156 269.972656 308.148438 Z M 269.972656 308.148438 " fill-opacity="1" fill-rule="evenodd"/><path fill="#ffffff" d="M 269.972656 308.148438 C 270.050781 302.660156 271.113281 301.921875 275.125 303.257812 C 275.523438 303.390625 276.027344 303.429688 276.300781 303.695312 C 281.414062 308.761719 287.34375 307.5 293.398438 306.105469 C 298.046875 305.035156 298.996094 306.324219 298.828125 311.191406 C 298.597656 317.960938 295.378906 323.671875 293.046875 329.714844 C 292.996094 329.84375 292.933594 330.082031 292.871094 330.082031 C 288.671875 330.085938 286.296875 334.894531 281.492188 333.96875 C 276.832031 333.070312 275.289062 329.523438 274.027344 326.152344 C 271.722656 319.972656 272.449219 313.050781 269.972656 308.148438 Z M 269.972656 308.148438 " fill-opacity="1" fill-rule="evenodd"/></g></g></g></g></svg>