<svg id="visual" viewBox="0 0 900 600" width="900" height="600" xmlns="http://www.w3.org/2000/svg" xmlns:xlink="http://www.w3.org/1999/xlink" version="1.1"><g stroke-width="1" stroke-linejoin="bevel"><path d="M458 319L450 267L418 325Z" fill="#221313" stroke="#221313"></path><path d="M450 267L426 238L418 325Z" fill="#201110" stroke="#201110"></path><path d="M458 319L499 297L450 267Z" fill="#1a0605" stroke="#1a0605"></path><path d="M450 267L481 242L426 238Z" fill="#000000" stroke="#000000"></path><path d="M382 344L384 345L418 325Z" fill="#241616" stroke="#241616"></path><path d="M468 371L500 333L458 319Z" fill="#201110" stroke="#201110"></path><path d="M355 245L382 344L418 325Z" fill="#1e0e0d" stroke="#1e0e0d"></path><path d="M499 297L481 242L450 267Z" fill="#241616" stroke="#241616"></path><path d="M468 371L458 319L418 325Z" fill="#201110" stroke="#201110"></path><path d="M458 319L500 333L499 297Z" fill="#000000" stroke="#000000"></path><path d="M357 366L401 368L384 345Z" fill="#271818" stroke="#271818"></path><path d="M384 345L401 368L418 325Z" fill="#1c0a09" stroke="#1c0a09"></path><path d="M401 368L468 371L418 325Z" fill="#241616" stroke="#241616"></path><path d="M566 332L515 273L499 297Z" fill="#1c0a09" stroke="#1c0a09"></path><path d="M499 297L515 273L481 242Z" fill="#1a0605" stroke="#1a0605"></path><path d="M426 238L355 245L418 325Z" fill="#291a1a" stroke="#291a1a"></path><path d="M355 245L356 353L382 344Z" fill="#221313" stroke="#221313"></path><path d="M382 344L357 366L384 345Z" fill="#201110" stroke="#201110"></path><path d="M508 146L459 195L481 242Z" fill="#271818" stroke="#271818"></path><path d="M481 242L459 195L426 238Z" fill="#201110" stroke="#201110"></path><path d="M426 238L367 199L355 245Z" fill="#271818" stroke="#271818"></path><path d="M356 353L357 366L382 344Z" fill="#1a0605" stroke="#1a0605"></path><path d="M459 195L367 199L426 238Z" fill="#160000" stroke="#160000"></path><path d="M244 351L341 381L356 353Z" fill="#291a1a" stroke="#291a1a"></path><path d="M356 353L341 381L357 366Z" fill="#1e0e0d" stroke="#1e0e0d"></path><path d="M357 366L350 418L401 368Z" fill="#201110" stroke="#201110"></path><path d="M401 368L432 460L468 371Z" fill="#271818" stroke="#271818"></path><path d="M566 332L555 255L515 273Z" fill="#221313" stroke="#221313"></path><path d="M515 273L555 255L481 242Z" fill="#1e0e0d" stroke="#1e0e0d"></path><path d="M367 199L319 237L355 245Z" fill="#201110" stroke="#201110"></path><path d="M355 245L319 237L356 353Z" fill="#291a1a" stroke="#291a1a"></path><path d="M468 371L553 348L500 333Z" fill="#1a0605" stroke="#1a0605"></path><path d="M500 333L566 332L499 297Z" fill="#180201" stroke="#180201"></path><path d="M553 348L566 332L500 333Z" fill="#241616" stroke="#241616"></path><path d="M354 173L348 187L367 199Z" fill="#1e0e0d" stroke="#1e0e0d"></path><path d="M367 199L348 187L319 237Z" fill="#1c0a09" stroke="#1c0a09"></path><path d="M459 195L354 173L367 199Z" fill="#201110" stroke="#201110"></path><path d="M348 187L308 209L319 237Z" fill="#291a1a" stroke="#291a1a"></path><path d="M341 381L350 418L357 366Z" fill="#241616" stroke="#241616"></path><path d="M468 371L546 442L553 348Z" fill="#221313" stroke="#221313"></path><path d="M305 196L308 209L348 187Z" fill="#1c0a09" stroke="#1c0a09"></path><path d="M319 237L237 298L356 353Z" fill="#180201" stroke="#180201"></path><path d="M350 418L363 433L401 368Z" fill="#201110" stroke="#201110"></path><path d="M566 332L587 252L555 255Z" fill="#180201" stroke="#180201"></path><path d="M568 192L508 146L481 242Z" fill="#000000" stroke="#000000"></path><path d="M351 154L305 196L348 187Z" fill="#1a0605" stroke="#1a0605"></path><path d="M247 192L237 298L319 237Z" fill="#221313" stroke="#221313"></path><path d="M363 433L432 460L401 368Z" fill="#000000" stroke="#000000"></path><path d="M459 195L351 154L354 173Z" fill="#201110" stroke="#201110"></path><path d="M354 173L351 154L348 187Z" fill="#1e0e0d" stroke="#1e0e0d"></path><path d="M432 460L480 456L468 371Z" fill="#1c0a09" stroke="#1c0a09"></path><path d="M596 392L602 331L566 332Z" fill="#1a0605" stroke="#1a0605"></path><path d="M568 192L481 242L555 255Z" fill="#000000" stroke="#000000"></path><path d="M459 195L356 125L351 154Z" fill="#291a1a" stroke="#291a1a"></path><path d="M587 252L568 192L555 255Z" fill="#180201" stroke="#180201"></path><path d="M596 392L566 332L553 348Z" fill="#1c0a09" stroke="#1c0a09"></path><path d="M566 332L602 331L587 252Z" fill="#1c0a09" stroke="#1c0a09"></path><path d="M481 467L485 462L480 456Z" fill="#201110" stroke="#201110"></path><path d="M480 456L546 442L468 371Z" fill="#180201" stroke="#180201"></path><path d="M432 460L481 467L480 456Z" fill="#291a1a" stroke="#291a1a"></path><path d="M485 462L546 442L480 456Z" fill="#000000" stroke="#000000"></path><path d="M568 192L527 142L508 146Z" fill="#291a1a" stroke="#291a1a"></path><path d="M468 107L356 125L459 195Z" fill="#241616" stroke="#241616"></path><path d="M549 451L546 442L485 462Z" fill="#1a0605" stroke="#1a0605"></path><path d="M468 107L459 195L508 146Z" fill="#291a1a" stroke="#291a1a"></path><path d="M351 154L286 154L305 196Z" fill="#180201" stroke="#180201"></path><path d="M546 442L596 392L553 348Z" fill="#241616" stroke="#241616"></path><path d="M527 142L468 107L508 146Z" fill="#180201" stroke="#180201"></path><path d="M494 489L549 451L485 462Z" fill="#1a0605" stroke="#1a0605"></path><path d="M546 442L588 452L596 392Z" fill="#201110" stroke="#201110"></path><path d="M597 451L603 393L596 392Z" fill="#1c0a09" stroke="#1c0a09"></path><path d="M596 392L627 354L602 331Z" fill="#221313" stroke="#221313"></path><path d="M568 192L555 143L527 142Z" fill="#1e0e0d" stroke="#1e0e0d"></path><path d="M538 59L451 70L468 107Z" fill="#221313" stroke="#221313"></path><path d="M642 145L555 143L568 192Z" fill="#201110" stroke="#201110"></path><path d="M247 192L319 237L308 209Z" fill="#291a1a" stroke="#291a1a"></path><path d="M341 381L277 449L350 418Z" fill="#000000" stroke="#000000"></path><path d="M315 505L380 505L363 433Z" fill="#271818" stroke="#271818"></path><path d="M237 298L244 351L356 353Z" fill="#1c0a09" stroke="#1c0a09"></path><path d="M237 298L234 311L244 351Z" fill="#271818" stroke="#271818"></path><path d="M603 393L627 354L596 392Z" fill="#241616" stroke="#241616"></path><path d="M661 272L627 222L587 252Z" fill="#180201" stroke="#180201"></path><path d="M587 252L627 222L568 192Z" fill="#1c0a09" stroke="#1c0a09"></path><path d="M432 460L494 489L481 467Z" fill="#180201" stroke="#180201"></path><path d="M481 467L494 489L485 462Z" fill="#160000" stroke="#160000"></path><path d="M451 546L494 489L432 460Z" fill="#000000" stroke="#000000"></path><path d="M287 125L286 154L351 154Z" fill="#1e0e0d" stroke="#1e0e0d"></path><path d="M305 196L247 192L308 209Z" fill="#271818" stroke="#271818"></path><path d="M662 294L587 252L602 331Z" fill="#1e0e0d" stroke="#1e0e0d"></path><path d="M494 489L553 466L549 451Z" fill="#271818" stroke="#271818"></path><path d="M549 451L588 452L546 442Z" fill="#221313" stroke="#221313"></path><path d="M451 70L442 84L468 107Z" fill="#1e0e0d" stroke="#1e0e0d"></path><path d="M468 107L442 84L356 125Z" fill="#1a0605" stroke="#1a0605"></path><path d="M356 125L316 104L351 154Z" fill="#1a0605" stroke="#1a0605"></path><path d="M286 154L247 192L305 196Z" fill="#160000" stroke="#160000"></path><path d="M237 298L220 320L234 311Z" fill="#221313" stroke="#221313"></path><path d="M197 330L220 320L237 298Z" fill="#221313" stroke="#221313"></path><path d="M234 311L220 320L244 351Z" fill="#291a1a" stroke="#291a1a"></path><path d="M277 449L363 433L350 418Z" fill="#291a1a" stroke="#291a1a"></path><path d="M363 433L380 505L432 460Z" fill="#000000" stroke="#000000"></path><path d="M553 466L588 452L549 451Z" fill="#201110" stroke="#201110"></path><path d="M654 444L659 347L627 354Z" fill="#160000" stroke="#160000"></path><path d="M221 417L277 449L244 351Z" fill="#241616" stroke="#241616"></path><path d="M244 351L277 449L341 381Z" fill="#291a1a" stroke="#291a1a"></path><path d="M442 84L402 77L356 125Z" fill="#000000" stroke="#000000"></path><path d="M644 447L597 451L623 523Z" fill="#1e0e0d" stroke="#1e0e0d"></path><path d="M623 523L597 451L588 452Z" fill="#1a0605" stroke="#1a0605"></path><path d="M588 452L597 451L596 392Z" fill="#291a1a" stroke="#291a1a"></path><path d="M387 53L316 104L356 125Z" fill="#241616" stroke="#241616"></path><path d="M286 154L245 155L247 192Z" fill="#201110" stroke="#201110"></path><path d="M316 104L287 125L351 154Z" fill="#1a0605" stroke="#1a0605"></path><path d="M538 59L468 107L527 142Z" fill="#000000" stroke="#000000"></path><path d="M442 84L451 70L402 77Z" fill="#291a1a" stroke="#291a1a"></path><path d="M659 347L662 294L627 354Z" fill="#291a1a" stroke="#291a1a"></path><path d="M627 354L662 294L602 331Z" fill="#160000" stroke="#160000"></path><path d="M662 294L661 272L587 252Z" fill="#221313" stroke="#221313"></path><path d="M654 444L627 354L603 393Z" fill="#271818" stroke="#271818"></path><path d="M287 125L245 155L286 154Z" fill="#241616" stroke="#241616"></path><path d="M171 204L197 330L237 298Z" fill="#271818" stroke="#271818"></path><path d="M228 167L245 155L226 153Z" fill="#291a1a" stroke="#291a1a"></path><path d="M204 186L237 298L247 192Z" fill="#201110" stroke="#201110"></path><path d="M220 320L197 330L244 351Z" fill="#180201" stroke="#180201"></path><path d="M277 449L315 505L363 433Z" fill="#1c0a09" stroke="#1c0a09"></path><path d="M226 153L245 155L209 121Z" fill="#221313" stroke="#221313"></path><path d="M245 155L228 167L247 192Z" fill="#1a0605" stroke="#1a0605"></path><path d="M198 383L221 417L244 351Z" fill="#221313" stroke="#221313"></path><path d="M277 449L294 505L315 505Z" fill="#160000" stroke="#160000"></path><path d="M149 368L191 339L110 278Z" fill="#1c0a09" stroke="#1c0a09"></path><path d="M197 330L191 339L244 351Z" fill="#160000" stroke="#160000"></path><path d="M425 28L387 53L402 77Z" fill="#180201" stroke="#180201"></path><path d="M402 77L387 53L356 125Z" fill="#241616" stroke="#241616"></path><path d="M251 93L245 155L287 125Z" fill="#1e0e0d" stroke="#1e0e0d"></path><path d="M380 505L451 546L432 460Z" fill="#241616" stroke="#241616"></path><path d="M494 489L537 559L553 466Z" fill="#241616" stroke="#241616"></path><path d="M392 565L451 546L380 505Z" fill="#000000" stroke="#000000"></path><path d="M258 507L294 505L277 449Z" fill="#291a1a" stroke="#291a1a"></path><path d="M318 553L392 565L380 505Z" fill="#1c0a09" stroke="#1c0a09"></path><path d="M191 339L198 383L244 351Z" fill="#1a0605" stroke="#1a0605"></path><path d="M251 93L287 125L316 104Z" fill="#221313" stroke="#221313"></path><path d="M228 167L204 186L247 192Z" fill="#1e0e0d" stroke="#1e0e0d"></path><path d="M710 313L661 272L662 294Z" fill="#1e0e0d" stroke="#1e0e0d"></path><path d="M710 313L683 244L661 272Z" fill="#1a0605" stroke="#1a0605"></path><path d="M661 272L683 244L627 222Z" fill="#160000" stroke="#160000"></path><path d="M627 222L642 145L568 192Z" fill="#1e0e0d" stroke="#1e0e0d"></path><path d="M186 157L204 186L228 167Z" fill="#000000" stroke="#000000"></path><path d="M712 191L642 145L627 222Z" fill="#271818" stroke="#271818"></path><path d="M580 81L538 59L527 142Z" fill="#271818" stroke="#271818"></path><path d="M671 449L644 447L623 523Z" fill="#180201" stroke="#180201"></path><path d="M597 451L644 447L603 393Z" fill="#160000" stroke="#160000"></path><path d="M659 347L710 313L662 294Z" fill="#180201" stroke="#180201"></path><path d="M580 81L527 142L555 143Z" fill="#201110" stroke="#201110"></path><path d="M451 70L425 28L402 77Z" fill="#180201" stroke="#180201"></path><path d="M622 114L601 98L555 143Z" fill="#271818" stroke="#271818"></path><path d="M601 98L580 81L555 143Z" fill="#1e0e0d" stroke="#1e0e0d"></path><path d="M642 145L622 114L555 143Z" fill="#1c0a09" stroke="#1c0a09"></path><path d="M614 0L561 54L580 81Z" fill="#1c0a09" stroke="#1c0a09"></path><path d="M198 383L215 442L221 417Z" fill="#291a1a" stroke="#291a1a"></path><path d="M221 417L215 442L277 449Z" fill="#221313" stroke="#221313"></path><path d="M671 449L654 444L644 447Z" fill="#221313" stroke="#221313"></path><path d="M644 447L654 444L603 393Z" fill="#160000" stroke="#160000"></path><path d="M512 0L425 28L451 70Z" fill="#160000" stroke="#160000"></path><path d="M306 0L251 93L316 104Z" fill="#160000" stroke="#160000"></path><path d="M318 553L380 505L315 505Z" fill="#1a0605" stroke="#1a0605"></path><path d="M580 81L561 54L538 59Z" fill="#271818" stroke="#271818"></path><path d="M512 0L410 0L425 28Z" fill="#1e0e0d" stroke="#1e0e0d"></path><path d="M649 66L580 81L601 98Z" fill="#180201" stroke="#180201"></path><path d="M324 0L316 104L387 53Z" fill="#000000" stroke="#000000"></path><path d="M186 157L171 204L204 186Z" fill="#291a1a" stroke="#291a1a"></path><path d="M213 473L258 507L277 449Z" fill="#1a0605" stroke="#1a0605"></path><path d="M294 505L318 553L315 505Z" fill="#291a1a" stroke="#291a1a"></path><path d="M719 313L710 313L705 394Z" fill="#221313" stroke="#221313"></path><path d="M186 157L228 167L226 153Z" fill="#291a1a" stroke="#291a1a"></path><path d="M204 186L171 204L237 298Z" fill="#180201" stroke="#180201"></path><path d="M258 507L318 553L294 505Z" fill="#1c0a09" stroke="#1c0a09"></path><path d="M623 523L588 452L553 466Z" fill="#241616" stroke="#241616"></path><path d="M654 444L705 394L659 347Z" fill="#1e0e0d" stroke="#1e0e0d"></path><path d="M488 600L537 559L451 546Z" fill="#1c0a09" stroke="#1c0a09"></path><path d="M451 546L537 559L494 489Z" fill="#201110" stroke="#201110"></path><path d="M140 470L213 473L215 442Z" fill="#1e0e0d" stroke="#1e0e0d"></path><path d="M215 442L213 473L277 449Z" fill="#1e0e0d" stroke="#1e0e0d"></path><path d="M278 600L342 590L318 553Z" fill="#000000" stroke="#000000"></path><path d="M209 121L186 157L226 153Z" fill="#221313" stroke="#221313"></path><path d="M251 93L209 121L245 155Z" fill="#1c0a09" stroke="#1c0a09"></path><path d="M705 394L710 313L659 347Z" fill="#000000" stroke="#000000"></path><path d="M710 313L737 244L683 244Z" fill="#1c0a09" stroke="#1c0a09"></path><path d="M683 244L712 191L627 222Z" fill="#271818" stroke="#271818"></path><path d="M671 449L705 394L654 444Z" fill="#160000" stroke="#160000"></path><path d="M110 278L191 339L197 330Z" fill="#180201" stroke="#180201"></path><path d="M191 339L149 368L198 383Z" fill="#1c0a09" stroke="#1c0a09"></path><path d="M198 383L140 470L215 442Z" fill="#271818" stroke="#271818"></path><path d="M537 559L623 523L553 466Z" fill="#291a1a" stroke="#291a1a"></path><path d="M512 0L451 70L538 59Z" fill="#1a0605" stroke="#1a0605"></path><path d="M425 28L402 0L387 53Z" fill="#241616" stroke="#241616"></path><path d="M642 145L677 118L622 114Z" fill="#1c0a09" stroke="#1c0a09"></path><path d="M622 114L646 81L601 98Z" fill="#000000" stroke="#000000"></path><path d="M737 244L712 191L683 244Z" fill="#271818" stroke="#271818"></path><path d="M186 157L155 194L171 204Z" fill="#241616" stroke="#241616"></path><path d="M171 204L110 278L197 330Z" fill="#160000" stroke="#160000"></path><path d="M167 154L155 194L186 157Z" fill="#1e0e0d" stroke="#1e0e0d"></path><path d="M410 0L402 0L425 28Z" fill="#291a1a" stroke="#291a1a"></path><path d="M702 152L677 118L642 145Z" fill="#160000" stroke="#160000"></path><path d="M677 118L646 81L622 114Z" fill="#221313" stroke="#221313"></path><path d="M518 0L512 0L538 59Z" fill="#160000" stroke="#160000"></path><path d="M209 121L167 154L186 157Z" fill="#1e0e0d" stroke="#1e0e0d"></path><path d="M712 191L702 152L642 145Z" fill="#221313" stroke="#221313"></path><path d="M400 602L451 600L392 565Z" fill="#160000" stroke="#160000"></path><path d="M392 565L451 600L451 546Z" fill="#201110" stroke="#201110"></path><path d="M537 559L580 578L623 523Z" fill="#160000" stroke="#160000"></path><path d="M518 0L538 59L529 0Z" fill="#291a1a" stroke="#291a1a"></path><path d="M756 291L737 244L719 313Z" fill="#271818" stroke="#271818"></path><path d="M719 313L737 244L710 313Z" fill="#000000" stroke="#000000"></path><path d="M712 191L770 185L702 152Z" fill="#1e0e0d" stroke="#1e0e0d"></path><path d="M451 600L481 600L451 546Z" fill="#241616" stroke="#241616"></path><path d="M529 0L538 59L561 54Z" fill="#180201" stroke="#180201"></path><path d="M370 600L400 602L392 565Z" fill="#1a0605" stroke="#1a0605"></path><path d="M451 600L400 602L481 600Z" fill="#271818" stroke="#271818"></path><path d="M318 553L342 590L392 565Z" fill="#1e0e0d" stroke="#1e0e0d"></path><path d="M257 586L318 553L258 507Z" fill="#271818" stroke="#271818"></path><path d="M400 602L488 600L481 600Z" fill="#201110" stroke="#201110"></path><path d="M481 600L488 600L451 546Z" fill="#1e0e0d" stroke="#1e0e0d"></path><path d="M342 590L370 600L392 565Z" fill="#1e0e0d" stroke="#1e0e0d"></path><path d="M614 0L529 0L561 54Z" fill="#1c0a09" stroke="#1c0a09"></path><path d="M342 590L357 600L370 600Z" fill="#221313" stroke="#221313"></path><path d="M370 600L357 600L400 602Z" fill="#271818" stroke="#271818"></path><path d="M677 118L649 66L646 81Z" fill="#000000" stroke="#000000"></path><path d="M646 81L649 66L601 98Z" fill="#1e0e0d" stroke="#1e0e0d"></path><path d="M657 50L649 66L677 118Z" fill="#201110" stroke="#201110"></path><path d="M402 0L324 0L387 53Z" fill="#1a0605" stroke="#1a0605"></path><path d="M251 93L153 64L209 121Z" fill="#1a0605" stroke="#1a0605"></path><path d="M101 134L119 178L167 154Z" fill="#000000" stroke="#000000"></path><path d="M528 600L580 578L537 559Z" fill="#241616" stroke="#241616"></path><path d="M400 602L528 600L488 600Z" fill="#1a0605" stroke="#1a0605"></path><path d="M488 600L528 600L537 559Z" fill="#241616" stroke="#241616"></path><path d="M768 365L753 339L705 394Z" fill="#1e0e0d" stroke="#1e0e0d"></path><path d="M705 394L753 339L719 313Z" fill="#291a1a" stroke="#291a1a"></path><path d="M768 365L705 394L767 411Z" fill="#160000" stroke="#160000"></path><path d="M753 339L756 291L719 313Z" fill="#291a1a" stroke="#291a1a"></path><path d="M737 244L774 213L712 191Z" fill="#1c0a09" stroke="#1c0a09"></path><path d="M324 0L306 0L316 104Z" fill="#180201" stroke="#180201"></path><path d="M105 278L110 278L80 205Z" fill="#1e0e0d" stroke="#1e0e0d"></path><path d="M155 194L110 278L171 204Z" fill="#241616" stroke="#241616"></path><path d="M110 278L113 363L149 368Z" fill="#160000" stroke="#160000"></path><path d="M149 368L140 470L198 383Z" fill="#160000" stroke="#160000"></path><path d="M80 205L110 278L155 194Z" fill="#1a0605" stroke="#1a0605"></path><path d="M110 278L105 278L113 363Z" fill="#291a1a" stroke="#291a1a"></path><path d="M683 0L657 50L688 0Z" fill="#271818" stroke="#271818"></path><path d="M649 66L614 0L580 81Z" fill="#180201" stroke="#180201"></path><path d="M142 87L167 154L209 121Z" fill="#1a0605" stroke="#1a0605"></path><path d="M167 154L119 178L155 194Z" fill="#1a0605" stroke="#1a0605"></path><path d="M80 372L106 371L113 363Z" fill="#221313" stroke="#221313"></path><path d="M113 363L106 371L149 368Z" fill="#1c0a09" stroke="#1c0a09"></path><path d="M306 0L241 18L251 93Z" fill="#1c0a09" stroke="#1c0a09"></path><path d="M221 585L258 507L156 542Z" fill="#221313" stroke="#221313"></path><path d="M221 585L257 586L258 507Z" fill="#201110" stroke="#201110"></path><path d="M342 590L278 600L357 600Z" fill="#271818" stroke="#271818"></path><path d="M767 411L705 394L769 446Z" fill="#291a1a" stroke="#291a1a"></path><path d="M753 339L790 293L756 291Z" fill="#291a1a" stroke="#291a1a"></path><path d="M692 547L671 449L623 523Z" fill="#160000" stroke="#160000"></path><path d="M257 586L278 600L318 553Z" fill="#221313" stroke="#221313"></path><path d="M357 600L278 600L400 602Z" fill="#160000" stroke="#160000"></path><path d="M98 378L140 470L149 368Z" fill="#241616" stroke="#241616"></path><path d="M80 372L98 378L106 371Z" fill="#000000" stroke="#000000"></path><path d="M106 371L98 378L149 368Z" fill="#180201" stroke="#180201"></path><path d="M652 600L659 559L580 578Z" fill="#241616" stroke="#241616"></path><path d="M580 578L659 559L623 523Z" fill="#160000" stroke="#160000"></path><path d="M657 50L614 0L649 66Z" fill="#221313" stroke="#221313"></path><path d="M798 253L737 244L756 291Z" fill="#000000" stroke="#000000"></path><path d="M798 253L774 213L737 244Z" fill="#1a0605" stroke="#1a0605"></path><path d="M771 60L657 50L677 118Z" fill="#000000" stroke="#000000"></path><path d="M85 468L140 489L140 470Z" fill="#201110" stroke="#201110"></path><path d="M140 470L140 489L213 473Z" fill="#241616" stroke="#241616"></path><path d="M769 446L705 394L671 449Z" fill="#180201" stroke="#180201"></path><path d="M815 360L790 293L753 339Z" fill="#180201" stroke="#180201"></path><path d="M774 213L770 185L712 191Z" fill="#201110" stroke="#201110"></path><path d="M815 360L753 339L768 365Z" fill="#201110" stroke="#201110"></path><path d="M774 213L794 180L770 185Z" fill="#160000" stroke="#160000"></path><path d="M306 0L233 0L241 18Z" fill="#241616" stroke="#241616"></path><path d="M153 64L142 87L209 121Z" fill="#160000" stroke="#160000"></path><path d="M767 411L784 374L768 365Z" fill="#291a1a" stroke="#291a1a"></path><path d="M156 542L258 507L213 473Z" fill="#1e0e0d" stroke="#1e0e0d"></path><path d="M257 586L211 600L278 600Z" fill="#1a0605" stroke="#1a0605"></path><path d="M153 64L251 93L241 18Z" fill="#201110" stroke="#201110"></path><path d="M659 559L692 547L623 523Z" fill="#271818" stroke="#271818"></path><path d="M105 278L80 372L113 363Z" fill="#241616" stroke="#241616"></path><path d="M98 378L85 468L140 470Z" fill="#221313" stroke="#221313"></path><path d="M71 275L80 372L105 278Z" fill="#1a0605" stroke="#1a0605"></path><path d="M306 0L229 -3L233 0Z" fill="#000000" stroke="#000000"></path><path d="M233 0L229 -3L241 18Z" fill="#201110" stroke="#201110"></path><path d="M324 0L229 -3L306 0Z" fill="#291a1a" stroke="#291a1a"></path><path d="M402 0L229 -3L324 0Z" fill="#201110" stroke="#201110"></path><path d="M410 0L229 -3L402 0Z" fill="#271818" stroke="#271818"></path><path d="M512 0L229 -3L410 0Z" fill="#1c0a09" stroke="#1c0a09"></path><path d="M518 0L229 -3L512 0Z" fill="#1c0a09" stroke="#1c0a09"></path><path d="M529 0L229 -3L518 0Z" fill="#1a0605" stroke="#1a0605"></path><path d="M614 0L229 -3L529 0Z" fill="#221313" stroke="#221313"></path><path d="M80 205L155 194L119 178Z" fill="#1e0e0d" stroke="#1e0e0d"></path><path d="M80 205L71 275L105 278Z" fill="#1a0605" stroke="#1a0605"></path><path d="M229 -3L153 64L241 18Z" fill="#201110" stroke="#201110"></path><path d="M88 147L80 205L119 178Z" fill="#291a1a" stroke="#291a1a"></path><path d="M101 134L167 154L142 87Z" fill="#291a1a" stroke="#291a1a"></path><path d="M810 255L798 253L790 293Z" fill="#160000" stroke="#160000"></path><path d="M790 293L798 253L756 291Z" fill="#1c0a09" stroke="#1c0a09"></path><path d="M733 511L769 446L671 449Z" fill="#201110" stroke="#201110"></path><path d="M767 411L798 396L784 374Z" fill="#1a0605" stroke="#1a0605"></path><path d="M692 547L733 511L671 449Z" fill="#180201" stroke="#180201"></path><path d="M23 90L101 134L142 87Z" fill="#1e0e0d" stroke="#1e0e0d"></path><path d="M155 543L156 542L132 542Z" fill="#1c0a09" stroke="#1c0a09"></path><path d="M140 489L156 542L213 473Z" fill="#000000" stroke="#000000"></path><path d="M132 542L156 542L140 489Z" fill="#1e0e0d" stroke="#1e0e0d"></path><path d="M156 542L155 543L221 585Z" fill="#221313" stroke="#221313"></path><path d="M528 600L652 600L580 578Z" fill="#1c0a09" stroke="#1c0a09"></path><path d="M659 559L694 600L692 547Z" fill="#271818" stroke="#271818"></path><path d="M802 502L777 496L801 558Z" fill="#201110" stroke="#201110"></path><path d="M400 602L652 600L528 600Z" fill="#271818" stroke="#271818"></path><path d="M-2 151L88 147L0 122Z" fill="#221313" stroke="#221313"></path><path d="M101 134L88 147L119 178Z" fill="#180201" stroke="#180201"></path><path d="M155 543L211 600L221 585Z" fill="#1c0a09" stroke="#1c0a09"></path><path d="M221 585L211 600L257 586Z" fill="#271818" stroke="#271818"></path><path d="M278 600L119 605L400 602Z" fill="#1c0a09" stroke="#1c0a09"></path><path d="M769 446L798 396L767 411Z" fill="#291a1a" stroke="#291a1a"></path><path d="M784 374L815 360L768 365Z" fill="#180201" stroke="#180201"></path><path d="M802 502L798 396L769 446Z" fill="#160000" stroke="#160000"></path><path d="M827 286L810 255L790 293Z" fill="#221313" stroke="#221313"></path><path d="M798 253L810 255L774 213Z" fill="#1e0e0d" stroke="#1e0e0d"></path><path d="M847 203L794 180L774 213Z" fill="#241616" stroke="#241616"></path><path d="M806 96L771 60L702 152Z" fill="#241616" stroke="#241616"></path><path d="M657 50L683 0L614 0Z" fill="#271818" stroke="#271818"></path><path d="M400 602L660 600L652 600Z" fill="#160000" stroke="#160000"></path><path d="M652 600L660 600L659 559Z" fill="#000000" stroke="#000000"></path><path d="M798 396L815 360L784 374Z" fill="#000000" stroke="#000000"></path><path d="M688 0L657 50L718 5Z" fill="#221313" stroke="#221313"></path><path d="M614 0L683 0L229 -3Z" fill="#180201" stroke="#180201"></path><path d="M80 372L85 468L98 378Z" fill="#1c0a09" stroke="#1c0a09"></path><path d="M16 402L85 468L80 372Z" fill="#000000" stroke="#000000"></path><path d="M103 550L132 542L140 489Z" fill="#1a0605" stroke="#1a0605"></path><path d="M155 543L154 600L211 600Z" fill="#1c0a09" stroke="#1c0a09"></path><path d="M718 5L657 50L771 60Z" fill="#1e0e0d" stroke="#1e0e0d"></path><path d="M683 0L688 0L229 -3Z" fill="#180201" stroke="#180201"></path><path d="M810 255L847 203L774 213Z" fill="#000000" stroke="#000000"></path><path d="M815 360L827 286L790 293Z" fill="#221313" stroke="#221313"></path><path d="M734 600L733 511L692 547Z" fill="#201110" stroke="#201110"></path><path d="M733 511L777 496L769 446Z" fill="#1c0a09" stroke="#1c0a09"></path><path d="M798 396L837 376L815 360Z" fill="#1c0a09" stroke="#1c0a09"></path><path d="M400 602L694 600L660 600Z" fill="#241616" stroke="#241616"></path><path d="M660 600L694 600L659 559Z" fill="#291a1a" stroke="#291a1a"></path><path d="M80 205L39 233L71 275Z" fill="#1e0e0d" stroke="#1e0e0d"></path><path d="M71 275L38 357L80 372Z" fill="#1c0a09" stroke="#1c0a09"></path><path d="M0 194L39 233L80 205Z" fill="#291a1a" stroke="#291a1a"></path><path d="M0 274L38 357L71 275Z" fill="#1e0e0d" stroke="#1e0e0d"></path><path d="M694 600L706 593L692 547Z" fill="#271818" stroke="#271818"></path><path d="M771 60L677 118L702 152Z" fill="#271818" stroke="#271818"></path><path d="M229 -3L152 0L153 64Z" fill="#1c0a09" stroke="#1c0a09"></path><path d="M153 64L104 0L142 87Z" fill="#271818" stroke="#271818"></path><path d="M0 230L0 274L39 233Z" fill="#271818" stroke="#271818"></path><path d="M876 397L837 376L798 396Z" fill="#160000" stroke="#160000"></path><path d="M815 360L845 352L827 286Z" fill="#160000" stroke="#160000"></path><path d="M806 96L770 185L819 115Z" fill="#241616" stroke="#241616"></path><path d="M806 96L702 152L770 185Z" fill="#201110" stroke="#201110"></path><path d="M900 277L844 248L827 286Z" fill="#1e0e0d" stroke="#1e0e0d"></path><path d="M827 286L844 248L810 255Z" fill="#1c0a09" stroke="#1c0a09"></path><path d="M132 542L154 600L155 543Z" fill="#160000" stroke="#160000"></path><path d="M211 600L119 605L278 600Z" fill="#241616" stroke="#241616"></path><path d="M119 605L154 600L132 542Z" fill="#271818" stroke="#271818"></path><path d="M837 376L845 352L815 360Z" fill="#160000" stroke="#160000"></path><path d="M14 497L103 550L85 468Z" fill="#180201" stroke="#180201"></path><path d="M85 468L103 550L140 489Z" fill="#1c0a09" stroke="#1c0a09"></path><path d="M876 397L847 365L837 376Z" fill="#160000" stroke="#160000"></path><path d="M837 376L847 365L845 352Z" fill="#1e0e0d" stroke="#1e0e0d"></path><path d="M845 352L900 277L827 286Z" fill="#180201" stroke="#180201"></path><path d="M780 566L777 496L733 511Z" fill="#160000" stroke="#160000"></path><path d="M777 496L802 502L769 446Z" fill="#221313" stroke="#221313"></path><path d="M819 115L770 185L794 180Z" fill="#271818" stroke="#271818"></path><path d="M771 60L751 0L718 5Z" fill="#1c0a09" stroke="#1c0a09"></path><path d="M900 235L847 203L844 248Z" fill="#291a1a" stroke="#291a1a"></path><path d="M844 248L847 203L810 255Z" fill="#160000" stroke="#160000"></path><path d="M806 96L786 58L771 60Z" fill="#1c0a09" stroke="#1c0a09"></path><path d="M842 149L819 115L794 180Z" fill="#221313" stroke="#221313"></path><path d="M806 96L822 38L786 58Z" fill="#180201" stroke="#180201"></path><path d="M694 600L734 600L706 593Z" fill="#201110" stroke="#201110"></path><path d="M706 593L734 600L692 547Z" fill="#271818" stroke="#271818"></path><path d="M400 602L734 600L694 600Z" fill="#180201" stroke="#180201"></path><path d="M0 361L16 402L38 357Z" fill="#291a1a" stroke="#291a1a"></path><path d="M38 357L16 402L80 372Z" fill="#241616" stroke="#241616"></path><path d="M847 203L842 149L794 180Z" fill="#1e0e0d" stroke="#1e0e0d"></path><path d="M819 115L822 38L806 96Z" fill="#000000" stroke="#000000"></path><path d="M799 0L751 0L786 58Z" fill="#201110" stroke="#201110"></path><path d="M786 58L751 0L771 60Z" fill="#1c0a09" stroke="#1c0a09"></path><path d="M718 5L751 0L688 0Z" fill="#1c0a09" stroke="#1c0a09"></path><path d="M688 0L751 0L229 -3Z" fill="#1a0605" stroke="#1a0605"></path><path d="M0 230L39 233L0 194Z" fill="#271818" stroke="#271818"></path><path d="M39 233L0 274L71 275Z" fill="#1e0e0d" stroke="#1e0e0d"></path><path d="M734 600L780 566L733 511Z" fill="#1c0a09" stroke="#1c0a09"></path><path d="M0 274L0 361L38 357Z" fill="#000000" stroke="#000000"></path><path d="M0 194L80 205L0 177Z" fill="#1e0e0d" stroke="#1e0e0d"></path><path d="M93 600L119 605L103 550Z" fill="#1a0605" stroke="#1a0605"></path><path d="M103 550L119 605L132 542Z" fill="#1a0605" stroke="#1a0605"></path><path d="M154 600L119 605L211 600Z" fill="#1c0a09" stroke="#1c0a09"></path><path d="M400 602L835 600L734 600Z" fill="#180201" stroke="#180201"></path><path d="M229 -3L104 0L152 0Z" fill="#271818" stroke="#271818"></path><path d="M152 0L104 0L153 64Z" fill="#291a1a" stroke="#291a1a"></path><path d="M0 177L80 205L88 147Z" fill="#1c0a09" stroke="#1c0a09"></path><path d="M-2 151L0 177L88 147Z" fill="#221313" stroke="#221313"></path><path d="M835 600L801 558L780 566Z" fill="#000000" stroke="#000000"></path><path d="M780 566L801 558L777 496Z" fill="#180201" stroke="#180201"></path><path d="M802 502L876 397L798 396Z" fill="#180201" stroke="#180201"></path><path d="M900 429L876 397L900 437Z" fill="#1e0e0d" stroke="#1e0e0d"></path><path d="M847 365L900 355L845 352Z" fill="#201110" stroke="#201110"></path><path d="M847 203L900 163L842 149Z" fill="#1c0a09" stroke="#1c0a09"></path><path d="M0 361L0 427L16 402Z" fill="#241616" stroke="#241616"></path><path d="M16 402L0 427L85 468Z" fill="#1c0a09" stroke="#1c0a09"></path><path d="M10 554L93 600L103 550Z" fill="#291a1a" stroke="#291a1a"></path><path d="M23 90L88 147L101 134Z" fill="#291a1a" stroke="#291a1a"></path><path d="M0 177L-2 151L0 194Z" fill="#291a1a" stroke="#291a1a"></path><path d="M0 194L-2 151L0 230Z" fill="#241616" stroke="#241616"></path><path d="M0 230L-2 151L0 274Z" fill="#291a1a" stroke="#291a1a"></path><path d="M0 274L-2 151L0 361Z" fill="#271818" stroke="#271818"></path><path d="M0 361L-2 151L0 427Z" fill="#160000" stroke="#160000"></path><path d="M78 0L23 90L142 87Z" fill="#201110" stroke="#201110"></path><path d="M229 -3L78 0L104 0Z" fill="#1a0605" stroke="#1a0605"></path><path d="M104 0L78 0L142 87Z" fill="#291a1a" stroke="#291a1a"></path><path d="M0 476L14 497L85 468Z" fill="#201110" stroke="#201110"></path><path d="M900 53L822 38L819 115Z" fill="#000000" stroke="#000000"></path><path d="M900 355L900 277L845 352Z" fill="#1e0e0d" stroke="#1e0e0d"></path><path d="M842 149L900 138L819 115Z" fill="#000000" stroke="#000000"></path><path d="M-1 78L0 122L23 90Z" fill="#1e0e0d" stroke="#1e0e0d"></path><path d="M23 90L0 122L88 147Z" fill="#1a0605" stroke="#1a0605"></path><path d="M900 429L900 355L876 397Z" fill="#180201" stroke="#180201"></path><path d="M876 397L900 355L847 365Z" fill="#180201" stroke="#180201"></path><path d="M900 277L900 235L844 248Z" fill="#271818" stroke="#271818"></path><path d="M822 38L799 0L786 58Z" fill="#221313" stroke="#221313"></path><path d="M751 0L799 0L229 -3Z" fill="#291a1a" stroke="#291a1a"></path><path d="M0 427L0 476L85 468Z" fill="#1e0e0d" stroke="#1e0e0d"></path><path d="M-2 151L0 476L0 427Z" fill="#271818" stroke="#271818"></path><path d="M-2 151L0 489L0 476Z" fill="#180201" stroke="#180201"></path><path d="M0 476L0 489L14 497Z" fill="#1a0605" stroke="#1a0605"></path><path d="M14 497L10 554L103 550Z" fill="#1c0a09" stroke="#1c0a09"></path><path d="M-2 151L0 511L0 489Z" fill="#271818" stroke="#271818"></path><path d="M0 489L0 511L14 497Z" fill="#271818" stroke="#271818"></path><path d="M900 437L876 397L802 502Z" fill="#180201" stroke="#180201"></path><path d="M900 235L900 163L847 203Z" fill="#221313" stroke="#221313"></path><path d="M822 38L831 0L799 0Z" fill="#1e0e0d" stroke="#1e0e0d"></path><path d="M0 71L-1 78L23 90Z" fill="#201110" stroke="#201110"></path><path d="M0 122L-1 78L-2 151Z" fill="#180201" stroke="#180201"></path><path d="M900 528L900 437L802 502Z" fill="#1a0605" stroke="#1a0605"></path><path d="M78 0L0 71L23 90Z" fill="#180201" stroke="#180201"></path><path d="M900 163L900 138L842 149Z" fill="#271818" stroke="#271818"></path><path d="M900 36L831 0L822 38Z" fill="#291a1a" stroke="#291a1a"></path><path d="M799 0L831 0L229 -3Z" fill="#271818" stroke="#271818"></path><path d="M0 511L10 554L14 497Z" fill="#1c0a09" stroke="#1c0a09"></path><path d="M734 600L835 600L780 566Z" fill="#1a0605" stroke="#1a0605"></path><path d="M900 533L900 528L802 502Z" fill="#1e0e0d" stroke="#1e0e0d"></path><path d="M844 600L835 600L400 602Z" fill="#291a1a" stroke="#291a1a"></path><path d="M900 600L844 600L400 602Z" fill="#1a0605" stroke="#1a0605"></path><path d="M835 600L844 600L801 558Z" fill="#000000" stroke="#000000"></path><path d="M900 533L802 502L801 558Z" fill="#201110" stroke="#201110"></path><path d="M93 600L9 600L119 605Z" fill="#180201" stroke="#180201"></path><path d="M10 554L9 600L93 600Z" fill="#1e0e0d" stroke="#1e0e0d"></path><path d="M0 600L9 600L10 554Z" fill="#201110" stroke="#201110"></path><path d="M844 600L900 533L801 558Z" fill="#000000" stroke="#000000"></path><path d="M229 -3L0 0L78 0Z" fill="#000000" stroke="#000000"></path><path d="M78 0L0 0L0 71Z" fill="#180201" stroke="#180201"></path><path d="M0 71L0 0L-1 78Z" fill="#1c0a09" stroke="#1c0a09"></path><path d="M-1 78L0 0L-2 151Z" fill="#291a1a" stroke="#291a1a"></path><path d="M900 138L900 53L819 115Z" fill="#000000" stroke="#000000"></path><path d="M-2 151L0 600L0 511Z" fill="#291a1a" stroke="#291a1a"></path><path d="M0 511L0 600L10 554Z" fill="#201110" stroke="#201110"></path><path d="M9 600L0 600L119 605Z" fill="#1a0605" stroke="#1a0605"></path><path d="M900 53L900 36L822 38Z" fill="#241616" stroke="#241616"></path><path d="M900 36L900 0L831 0Z" fill="#1e0e0d" stroke="#1e0e0d"></path><path d="M831 0L900 0L229 -3Z" fill="#000000" stroke="#000000"></path><path d="M119 605L900 600L400 602Z" fill="#000000" stroke="#000000"></path><path d="M844 600L900 600L900 533Z" fill="#160000" stroke="#160000"></path></g></svg>